<?xml version="1.0" encoding="utf-8"?>
<!-- Generator: Adobe Illustrator 25.4.1, SVG Export Plug-In . SVG Version: 6.00 Build 0)  -->
<svg version="1.1" id="Layer_1" xmlns="http://www.w3.org/2000/svg" xmlns:xlink="http://www.w3.org/1999/xlink" x="0px" y="0px"
	 width="162.4px" height="36.7px" viewBox="0 0 162.4 36.7" style="enable-background:new 0 0 162.4 36.7;" xml:space="preserve">
<style type="text/css">
	.st0{fill:#292524;}
	.st1{fill:#FFFFFF;}
</style>
<rect x="1" y="0.9" class="st0" width="32" height="32"/>
<g>
	<path class="st1" d="M17.6,25.6c-2,0-3.7-0.4-5.2-1.1c-1.5-0.7-2.6-1.8-3.4-3.2c-0.8-1.4-1.2-3.1-1.2-5c0-2,0.4-3.6,1.2-5
		c0.8-1.4,1.9-2.5,3.3-3.2c1.4-0.7,3.1-1.1,4.9-1.1c1.9,0,3.5,0.4,4.8,1.1c1.3,0.7,2.3,1.7,3,3c0.7,1.3,1,2.8,1,4.4
		c0,0.4,0,0.9,0,1.3c0,0.4-0.1,0.8-0.1,1.1H11.8v-3.3h11.6l-2.9,1.1c0-1.4-0.3-2.5-0.8-3.3s-1.3-1.2-2.4-1.2c-0.8,0-1.4,0.2-2,0.5
		c-0.5,0.4-0.9,0.9-1.2,1.7c-0.3,0.8-0.4,1.8-0.4,3c0,1.2,0.2,2.1,0.5,2.9c0.3,0.7,0.8,1.3,1.3,1.6c0.6,0.3,1.3,0.5,2.1,0.5
		c0.9,0,1.6-0.2,2.2-0.5s0.9-0.9,1.2-1.5l4.9,1.6c-0.3,1-0.9,1.9-1.7,2.6c-0.8,0.7-1.8,1.2-3,1.6C20,25.4,18.8,25.6,17.6,25.6z"/>
</g>
<g>
	<path class="st0" d="M45.5,28.1V5.6h16.8v3.8H50.2V15h9.6v3.6h-9.6v5.7h12.6v3.8H45.5z"/>
	<path class="st0" d="M66.6,28.1v-17h4.2l0.3,5.1l-0.6-0.5c0.3-1.1,0.7-2,1.3-2.7c0.6-0.7,1.3-1.3,2.2-1.6c0.9-0.4,1.8-0.5,2.8-0.5
		c1.2,0,2.2,0.2,3.1,0.7c0.9,0.5,1.6,1.1,2.2,2.1c0.5,0.9,0.8,2.1,0.8,3.5v11.2h-4.7v-9.8c0-1.5-0.3-2.5-0.9-3
		c-0.6-0.6-1.3-0.8-2.2-0.8c-0.6,0-1.3,0.2-1.9,0.5s-1.1,0.8-1.5,1.5s-0.6,1.6-0.6,2.7v9H66.6z"/>
	<path class="st0" d="M97.7,24.9c1.8,0,3.3,0.4,4.2,1.2c1,0.8,1.5,1.9,1.5,3.3c0,1.3-0.4,2.4-1.1,3.3c-0.7,0.9-1.8,1.6-3.1,2
		c-1.3,0.5-2.9,0.7-4.7,0.7c-2.9,0-5.1-0.4-6.4-1.2s-2-1.9-2-3.2c0-0.9,0.4-1.7,1.1-2.3c0.7-0.6,1.9-1,3.6-1.1l-0.2,0.5
		c-1.2-0.2-2.1-0.6-2.7-1.2c-0.6-0.6-0.9-1.4-0.9-2.4c0-1,0.4-1.9,1.2-2.6c0.8-0.7,1.9-1.1,3.3-1.2l2,1H93c-1,0.1-1.7,0.3-2.1,0.6
		c-0.4,0.3-0.6,0.7-0.6,1.1c0,0.5,0.2,0.8,0.6,1.1c0.4,0.2,0.9,0.4,1.6,0.4H97.7z M94.6,10.7c1.6,0,3,0.2,4.1,0.7
		c1.2,0.5,2.1,1.1,2.7,2s0.9,1.9,0.9,3.1c0,1.2-0.3,2.2-0.9,3.1c-0.6,0.9-1.5,1.5-2.7,2c-1.2,0.5-2.5,0.7-4.1,0.7
		c-2.5,0-4.4-0.5-5.8-1.5c-1.3-1-2-2.4-2-4.2c0-1.2,0.3-2.2,1-3.1c0.6-0.9,1.5-1.5,2.7-2C91.6,11,93,10.7,94.6,10.7z M94.6,32.2
		c1.2,0,2.1-0.1,2.9-0.3c0.8-0.2,1.3-0.5,1.7-0.8s0.6-0.7,0.6-1.1c0-0.4-0.2-0.8-0.5-1c-0.3-0.3-1-0.4-1.8-0.4h-5.7
		c-0.5,0-1,0.1-1.3,0.4c-0.4,0.3-0.5,0.6-0.5,1.1c0,0.6,0.4,1.1,1.3,1.5C91.9,32,93.1,32.2,94.6,32.2z M94.6,13.6
		c-0.9,0-1.7,0.2-2.2,0.7c-0.6,0.5-0.9,1.2-0.9,2.1c0,0.9,0.3,1.6,0.9,2.1c0.6,0.5,1.3,0.8,2.2,0.8c0.9,0,1.6-0.3,2.2-0.8
		c0.6-0.5,0.9-1.2,0.9-2.1c0-0.9-0.3-1.6-0.9-2.1C96.3,13.9,95.5,13.6,94.6,13.6z M103.3,7l0.5,3.3c-0.1,0-0.2,0-0.3,0
		c-0.1,0-0.2,0-0.3,0c-1,0-1.8,0.2-2.3,0.7c-0.5,0.5-0.8,1.1-0.8,1.9l-1.9-0.8c0-0.9,0.2-1.8,0.5-2.5c0.4-0.8,0.9-1.4,1.6-1.9
		c0.7-0.5,1.6-0.7,2.6-0.7c0,0,0.1,0,0.2,0S103.2,7,103.3,7z"/>
	<path class="st0" d="M116,17.2c0-1-0.3-1.7-0.8-2.3c-0.6-0.5-1.3-0.8-2.2-0.8c-0.8,0-1.6,0.2-2.2,0.6c-0.6,0.4-1.1,1.1-1.4,2.1
		l-4-1.2c0.4-1.5,1.2-2.7,2.5-3.6c1.3-0.9,3.1-1.4,5.3-1.4c1.5,0,2.8,0.2,3.9,0.7c1.1,0.5,2,1.2,2.6,2.1c0.6,0.9,0.9,2.1,0.9,3.5
		v6.9c0,0.9,0.4,1.3,1.2,1.3c0.4,0,0.7-0.1,1.1-0.2l-0.3,2.9c-0.6,0.3-1.3,0.4-2.2,0.4c-0.8,0-1.5-0.1-2.1-0.4
		c-0.6-0.3-1.1-0.7-1.5-1.2c-0.4-0.6-0.5-1.3-0.5-2.1v-0.1l0.8-0.1c-0.1,0.9-0.5,1.6-1.1,2.2c-0.6,0.6-1.4,1.1-2.2,1.4
		c-0.9,0.3-1.8,0.5-2.7,0.5c-1.2,0-2.2-0.2-3-0.5c-0.8-0.4-1.5-0.9-1.9-1.5c-0.5-0.7-0.7-1.5-0.7-2.5c0-1.3,0.4-2.3,1.2-3.1
		s2-1.4,3.5-1.6l6.4-1.3l0,2.9l-4.1,0.8c-0.8,0.2-1.4,0.4-1.8,0.6c-0.4,0.3-0.6,0.7-0.6,1.3c0,0.6,0.2,1,0.6,1.3
		c0.4,0.3,0.9,0.4,1.5,0.4c0.5,0,0.9-0.1,1.4-0.2c0.5-0.1,0.9-0.3,1.2-0.5c0.4-0.2,0.6-0.6,0.9-1c0.2-0.4,0.3-1,0.3-1.6V17.2z"/>
	<path class="st0" d="M136,24.9c1.8,0,3.3,0.4,4.2,1.2c1,0.8,1.5,1.9,1.5,3.3c0,1.3-0.4,2.4-1.1,3.3c-0.7,0.9-1.8,1.6-3.1,2
		c-1.3,0.5-2.9,0.7-4.7,0.7c-2.9,0-5.1-0.4-6.4-1.2s-2-1.9-2-3.2c0-0.9,0.4-1.7,1.1-2.3c0.7-0.6,1.9-1,3.6-1.1l-0.2,0.5
		c-1.2-0.2-2.1-0.6-2.7-1.2c-0.6-0.6-0.9-1.4-0.9-2.4c0-1,0.4-1.9,1.2-2.6c0.8-0.7,1.9-1.1,3.3-1.2l2,1h-0.5c-1,0.1-1.7,0.3-2.1,0.6
		c-0.4,0.3-0.6,0.7-0.6,1.1c0,0.5,0.2,0.8,0.6,1.1c0.4,0.2,0.9,0.4,1.6,0.4H136z M132.9,10.7c1.6,0,3,0.2,4.1,0.7
		c1.2,0.5,2.1,1.1,2.7,2s0.9,1.9,0.9,3.1c0,1.2-0.3,2.2-0.9,3.1c-0.6,0.9-1.5,1.5-2.7,2c-1.2,0.5-2.5,0.7-4.1,0.7
		c-2.5,0-4.4-0.5-5.8-1.5c-1.3-1-2-2.4-2-4.2c0-1.2,0.3-2.2,1-3.1c0.6-0.9,1.5-1.5,2.7-2C129.9,11,131.3,10.7,132.9,10.7z
		 M132.9,32.2c1.2,0,2.1-0.1,2.9-0.3c0.8-0.2,1.3-0.5,1.7-0.8s0.6-0.7,0.6-1.1c0-0.4-0.2-0.8-0.5-1c-0.3-0.3-1-0.4-1.8-0.4h-5.7
		c-0.5,0-1,0.1-1.3,0.4c-0.4,0.3-0.5,0.6-0.5,1.1c0,0.6,0.4,1.1,1.3,1.5C130.2,32,131.4,32.2,132.9,32.2z M132.9,13.6
		c-0.9,0-1.7,0.2-2.2,0.7c-0.6,0.5-0.9,1.2-0.9,2.1c0,0.9,0.3,1.6,0.9,2.1c0.6,0.5,1.3,0.8,2.2,0.8c0.9,0,1.6-0.3,2.2-0.8
		c0.6-0.5,0.9-1.2,0.9-2.1c0-0.9-0.3-1.6-0.9-2.1C134.5,13.9,133.8,13.6,132.9,13.6z M141.6,7l0.5,3.3c-0.1,0-0.2,0-0.3,0
		c-0.1,0-0.2,0-0.3,0c-1,0-1.8,0.2-2.3,0.7c-0.5,0.5-0.8,1.1-0.8,1.9l-1.9-0.8c0-0.9,0.2-1.8,0.5-2.5c0.4-0.8,0.9-1.4,1.6-1.9
		c0.7-0.5,1.6-0.7,2.6-0.7c0,0,0.1,0,0.2,0S141.5,7,141.6,7z"/>
	<path class="st0" d="M152.5,28.4c-1.8,0-3.3-0.4-4.7-1.1c-1.3-0.7-2.4-1.7-3.1-3c-0.7-1.3-1.1-2.9-1.1-4.8c0-1.9,0.4-3.4,1.1-4.8
		c0.7-1.3,1.7-2.3,3-3c1.3-0.7,2.8-1.1,4.5-1.1c1.7,0,3.2,0.3,4.4,1c1.2,0.7,2.1,1.6,2.8,2.8c0.6,1.2,1,2.5,1,4.1c0,0.5,0,0.9,0,1.3
		s-0.1,0.8-0.1,1.1h-13.6v-3.2h11.5l-2.2,0.8c0-1.4-0.3-2.5-1-3.3c-0.6-0.8-1.6-1.2-2.7-1.2c-0.9,0-1.6,0.2-2.2,0.6
		c-0.6,0.4-1.1,1-1.4,1.8c-0.3,0.8-0.5,1.8-0.5,3c0,1.2,0.2,2.2,0.5,3c0.4,0.8,0.9,1.4,1.5,1.8c0.6,0.4,1.4,0.6,2.3,0.6
		c1,0,1.8-0.2,2.4-0.6c0.6-0.4,1.1-0.9,1.4-1.6l3.7,1.4c-0.4,0.9-0.9,1.6-1.6,2.3c-0.7,0.6-1.6,1.1-2.6,1.4
		C154.7,28.2,153.6,28.4,152.5,28.4z"/>
</g>
</svg>
