<?xml version="1.0" encoding="utf-8"?>
<!-- Generator: Adobe Illustrator 26.1.0, SVG Export Plug-In . SVG Version: 6.00 Build 0)  -->
<svg version="1.1" id="Layer_1" xmlns="http://www.w3.org/2000/svg" xmlns:xlink="http://www.w3.org/1999/xlink" x="0px" y="0px"
	 width="24.5px" height="24px" viewBox="0 0 24.5 24" style="enable-background:new 0 0 24.5 24;" xml:space="preserve">
<style type="text/css">
	.st0{fill:none;}
	.st1{fill:#FFFFFF;}
</style>
<g>
	<g>
		<path class="st0" d="M4.8,11.4c0,0,1.4,0,0-3.3C4.8,8.1,3.2,11.3,4.8,11.4z"/>
		<polygon class="st0" points="15.8,12.1 16.2,11.5 8.8,11.5 9,12.1 		"/>
		<path class="st0" d="M12.3,10.2c0,0-0.1-1.2,1.3-3C13.7,7.2,10.2,8.8,12.3,10.2z"/>
		<polygon class="st0" points="16.2,11.3 16.5,10.8 8.3,10.8 8.7,11.3 		"/>
		<path class="st0" d="M18.5,12.4H5.7v-0.3H4v0.3H3.5l0.4,1H6c1.2,2.3,3.5,3.8,6.2,3.8c1.9,0,3.6-0.7,4.9-2c3.2,0.3,4-3.5,4-3.5
			L18.5,12.4z M17.8,14.7c0.2-0.3,0.5-0.6,0.6-0.9c0,0,0.3-0.5,0.5-1l1.6-0.4C19.5,14.6,18.2,14.7,17.8,14.7z"/>
		<path d="M12.2,0.3C5.8,0.3,0.5,5.5,0.5,12s5.2,11.7,11.7,11.7S24,18.5,24,12S18.7,0.3,12.2,0.3z M13.7,7.2c-1.4,1.8-1.3,3-1.3,3
			C10.2,8.8,13.7,7.2,13.7,7.2z M16.5,10.8l-0.2,0.5H8.7l-0.3-0.5H16.5z M16.2,11.5l-0.3,0.6H9l-0.2-0.6H16.2z M4.8,8.1
			c1.4,3.3,0,3.3,0,3.3C3.2,11.3,4.8,8.1,4.8,8.1z M17.2,15.2c-1.3,1.3-3,2-4.9,2c-2.7,0-5-1.5-6.2-3.8H4l-0.4-1H4v-0.3h1.7v0.3
			h12.9l2.6-0.7C21.2,11.7,20.3,15.5,17.2,15.2z"/>
		<path d="M18.8,12.8c-0.2,0.5-0.5,1-0.5,1c-0.1,0.3-0.4,0.6-0.6,0.9c0.4,0,1.8-0.1,2.7-2.3L18.8,12.8z"/>
	</g>
	<polygon class="st1" points="16.2,11.3 16.5,10.8 8.3,10.8 8.7,11.3 	"/>
	<polygon class="st1" points="15.8,12.1 16.2,11.5 8.8,11.5 9,12.1 	"/>
</g>
</svg>
