<?xml version="1.0" encoding="utf-8"?>
<!-- Generator: Adobe Illustrator 26.3.1, SVG Export Plug-In . SVG Version: 6.00 Build 0)  -->
<svg version="1.1" id="Layer_1" xmlns="http://www.w3.org/2000/svg" xmlns:xlink="http://www.w3.org/1999/xlink" x="0px" y="0px"
	 width="24.5px" height="24px" viewBox="0 0 24.5 24" style="enable-background:new 0 0 24.5 24;" xml:space="preserve">
<style type="text/css">
	.st0{fill:#292524;}
	.st1{fill:#FFFFFF;}
</style>
<g>
	<rect x="1.8" y="1.6" class="st0" width="21" height="20.9"/>
	<g>
		<path class="st1" d="M16.3,7.7C16,7,15.4,6.5,14.7,6.1s-1.5-0.6-2.4-0.6s-1.7,0.2-2.4,0.6S8.5,7,8.2,7.7s-0.6,1.5-0.6,2.5v3.6
			c0,0.9,0.2,1.8,0.6,2.5s0.9,1.3,1.6,1.7s1.5,0.6,2.4,0.6s1.7-0.2,2.4-0.6s1.3-0.9,1.6-1.7s0.6-1.5,0.6-2.5v-3.6
			C16.9,9.3,16.7,8.4,16.3,7.7z M12.2,15c-0.9,0-1.6-0.8-1.6-1.7v-2.6c0-1,0.7-1.7,1.6-1.7c0.9,0,1.6,0.8,1.6,1.7v2.6
			C13.9,14.3,13.1,15,12.2,15z"/>
		<path class="st0" d="M13.9,10.7c0-1-0.7-1.7-1.6-1.7c-0.9,0-1.6,0.8-1.6,1.7v2.6c0,1,0.7,1.7,1.6,1.7c0.9,0,1.6-0.8,1.6-1.7V10.7z
			"/>
	</g>
</g>
</svg>
