<?xml version="1.0" encoding="utf-8"?>
<!-- Generator: Adobe Illustrator 15.0.0, SVG Export Plug-In . SVG Version: 6.00 Build 0)  -->
<!DOCTYPE svg PUBLIC "-//W3C//DTD SVG 1.1//EN" "http://www.w3.org/Graphics/SVG/1.1/DTD/svg11.dtd">
<svg version="1.1" id="Layer_1" xmlns="http://www.w3.org/2000/svg" xmlns:xlink="http://www.w3.org/1999/xlink" x="0px" y="0px"
	 width="31.6px" height="31.5px" viewBox="0 0 31.6 31.5" style="enable-background:new 0 0 31.6 31.5;" xml:space="preserve">
<style type="text/css">
<![CDATA[
	.st0{fill:#FFFFFF;}
	.st1{fill:none;}
]]>
</style>
<g>
	<g>
		<path class="st1" d="M6,14.9c0,0,1.9,0,0-4.4C6,10.5,3.9,14.8,6,14.9z"/>
		<polygon class="st1" points="20.6,15.8 21.1,15.1 11.3,15.1 11.6,15.8 		"/>
		<path class="st1" d="M15.9,13.3c0,0-0.1-1.6,1.7-4C17.8,9.3,13.1,11.5,15.9,13.3z"/>
		<polygon class="st1" points="21.1,14.8 21.5,14.1 10.6,14.1 11.2,14.8 		"/>
		<path class="st1" d="M24.2,16.2h-17v-0.4H4.9v0.4H4.3l0.5,1.3h2.8c1.6,3.1,4.6,5,8.2,5c2.5,0,4.8-0.9,6.5-2.7
			c4.2,0.4,5.3-4.6,5.3-4.6L24.2,16.2z M23.2,19.3c0.3-0.4,0.7-0.8,0.8-1.2c0,0,0.4-0.7,0.7-1.3l2.1-0.5
			C25.5,19.2,23.8,19.3,23.2,19.3z"/>
		<path d="M15.8,0.2C7.3,0.2,0.3,7.1,0.3,15.7s6.9,15.5,15.5,15.5c8.6,0,15.7-6.9,15.7-15.5S24.4,0.2,15.8,0.2z M17.8,9.3
			c-1.9,2.4-1.7,4-1.7,4C13.1,11.5,17.8,9.3,17.8,9.3z M21.5,14.1l-0.3,0.7H11.2l-0.4-0.7H21.5z M21.1,15.1l-0.4,0.8h-9.2l-0.3-0.8
			H21.1z M6,10.5c1.9,4.4,0,4.4,0,4.4C3.9,14.8,6,10.5,6,10.5z M22.4,20c-1.7,1.7-4,2.7-6.5,2.7c-3.6,0-6.6-2-8.2-5H4.9l-0.5-1.3
			h0.5v-0.4h2.3v0.4h17.1l3.5-0.9C27.7,15.3,26.5,20.4,22.4,20z"/>
		<path d="M24.6,16.8c-0.3,0.7-0.7,1.3-0.7,1.3c-0.1,0.4-0.5,0.8-0.8,1.2c0.5,0,2.4-0.1,3.6-3.1L24.6,16.8z"/>
	</g>
	<polygon class="st0" points="21.1,14.8 21.5,14.1 10.6,14.1 11.2,14.8 	"/>
	<polygon class="st0" points="20.6,15.8 21.1,15.1 11.3,15.1 11.6,15.8 	"/>
</g>
</svg>
