<?xml version="1.0" encoding="UTF-8"?>
<svg width="24px" height="24px" viewBox="0 0 24 24" version="1.1" xmlns="http://www.w3.org/2000/svg" xmlns:xlink="http://www.w3.org/1999/xlink">
    <title>icons/navigation/back</title>
    <g id="icons/navigation/back" stroke="none" stroke-width="1" fill="none" fill-rule="evenodd">
        <g id="Group" transform="translate(11.921986, 12.000000) scale(-1, 1) translate(-11.921986, -12.000000) translate(1.000000, 1.000000)" fill="#908885" fill-rule="nonzero">
            <path d="M10.9219858,0.153297872 C16.954032,0.153297872 21.8439716,5.04323748 21.8439716,11.0752837 C21.8439716,17.1073299 16.954032,21.9972695 10.9219858,21.9972695 C4.88993961,21.9972695 -3.99365332e-15,17.1073299 -3.99365332e-15,11.0752837 C-3.99365332e-15,5.04323748 4.88993961,0.153297872 10.9219858,0.153297872 Z M10.9219858,1.5185461 C5.64394539,1.5185461 1.36524823,5.79724326 1.36524823,11.0752837 C1.36524823,16.3533241 5.64394539,20.6320213 10.9219858,20.6320213 C16.2000262,20.6320213 20.4787234,16.3533241 20.4787234,11.0752837 C20.4787234,5.79724326 16.2000262,1.5185461 10.9219858,1.5185461 Z M14.7914904,5.78926076 L14.8177945,5.81422675 L17.548291,8.54472321 L17.5657962,8.5628834 C17.5754362,8.57325877 17.5847573,8.58393452 17.5937439,8.59489505 L17.548291,8.54472321 C17.5784372,8.57486941 17.6051743,8.60713373 17.6285024,8.64103712 C17.6382316,8.65528534 17.6474818,8.66988731 17.6561796,8.68485004 C17.6653083,8.70045852 17.6736713,8.71628493 17.6813695,8.7323502 C17.6868317,8.74379415 17.692007,8.75539425 17.6968629,8.76715976 C17.7040824,8.78468995 17.7105581,8.8025107 17.7162685,8.82052155 C17.7207687,8.83458095 17.7246791,8.84842172 17.7281566,8.86243341 C17.740946,8.91417726 17.747661,8.96733771 17.7481927,9.02054847 C17.7482148,9.02266347 17.748227,9.02503599 17.748227,9.02741135 L17.7471574,9.06572732 C17.7461471,9.0838092 17.744421,9.10185856 17.7419791,9.1198293 L17.748227,9.02741135 C17.748227,9.07176463 17.7439969,9.11512993 17.7359182,9.15712583 C17.7323673,9.17528054 17.7280877,9.193489 17.7230529,9.21153095 C17.7028585,9.28105759 17.6761928,9.33941817 17.6423303,9.3927606 C17.6336965,9.40648315 17.6243498,9.4201038 17.614454,9.43344543 C17.6042736,9.44709584 17.5937369,9.46026209 17.5827363,9.47301699 C17.5795349,9.4767517 17.5764173,9.48028597 17.573257,9.48379535 L17.548291,9.51009949 L14.8177945,12.2405959 C14.5512132,12.5071772 14.1189995,12.5071772 13.8524182,12.2405959 C13.5944363,11.982614 13.5861143,11.5695134 13.8274523,11.3015238 L13.8524182,11.2752197 L15.418,9.70929787 L8.19148936,9.71003546 C6.68347781,9.71003546 5.46099291,10.9325204 5.46099291,12.4405319 C5.46099291,13.9485435 6.68347781,15.1710284 8.19148936,15.1710284 C8.56849225,15.1710284 8.87411348,15.4766496 8.87411348,15.8536525 C8.87411348,16.2306554 8.56849225,16.5362766 8.19148936,16.5362766 C5.92947204,16.5362766 4.09574468,14.7025492 4.09574468,12.4405319 C4.09574468,10.2011348 5.89298086,8.38150461 8.12375873,8.34533595 L8.19148936,8.34478723 L15.417,8.34429787 L13.8524182,6.77960303 C13.5944363,6.52162113 13.5861143,6.10852045 13.8274523,5.84053089 L13.8524182,5.81422675 C14.1104001,5.55624485 14.5235008,5.54792286 14.7914904,5.78926076 Z" id="Combined-Shape"></path>
        </g>
    </g>
</svg>