<?xml version="1.0" encoding="utf-8"?>
<!-- Generator: Adobe Illustrator 25.2.1, SVG Export Plug-In . SVG Version: 6.00 Build 0)  -->
<svg version="1.1" id="Layer_1" xmlns="http://www.w3.org/2000/svg" xmlns:xlink="http://www.w3.org/1999/xlink" x="0px" y="0px"
	 width="24px" height="24px" viewBox="0 0 24 24" style="enable-background:new 0 0 24 24;" xml:space="preserve">
<g id="icons_x2F_navigation_x2F_close">
	<path id="Combined-Shape" d="M23.2,0C23.7,0,24,0.3,24,0.8l0,0v22.5c0,0.4-0.3,0.8-0.8,0.8l0,0H0.8C0.3,24,0,23.7,0,23.2l0,0V0.8
		C0,0.3,0.3,0,0.8,0l0,0H23.2z M22.5,1.5h-21v21h21V1.5z M9.3,8.3L9.3,8.3L12,11l2.7-2.7C15,8,15.5,8,15.8,8.3s0.3,0.7,0,1l0,0
		L13.1,12l2.7,2.7c0.3,0.3,0.3,0.8,0,1.1s-0.7,0.3-1,0l0,0L12,13.1l-2.7,2.7c-0.3,0.3-0.8,0.3-1.1,0s-0.3-0.7,0-1l0,0l2.7-2.7
		L8.3,9.3C8,9.1,8,8.6,8.3,8.3S9,8,9.3,8.3z"/>
</g>
</svg>
