<?xml version="1.0" encoding="utf-8"?>
<!-- Generator: Adobe Illustrator 24.0.2, SVG Export Plug-In . SVG Version: 6.00 Build 0)  -->
<svg version="1.0" id="Layer_1" xmlns="http://www.w3.org/2000/svg" xmlns:xlink="http://www.w3.org/1999/xlink" x="0px" y="0px"
	 width="412.3px" height="111.4px" viewBox="0 0 412.3 111.4" style="enable-background:new 0 0 412.3 111.4;" xml:space="preserve"
	>
<g>
	<path style="fill:#333333;" d="M17.8,96.3c-2.5,0-4.8-0.4-6.6-1.3c-1.9-0.8-3.4-2-4.5-3.3c-1.1-1.4-2-3.1-2.7-5.2
		c-0.7-2.1-1.2-4.2-1.4-6.4c-0.3-2.1-0.4-4.6-0.5-7.4c-0.1-2.3-0.1-4.6,0-6.8c0.1-2.8,0.2-5.3,0.5-7.4c0.3-2.1,0.7-4.3,1.4-6.4
		c0.7-2.1,1.6-3.9,2.7-5.2s2.6-2.5,4.5-3.3c1.9-0.8,4.1-1.3,6.6-1.3c5.5,0,9.5,1.5,11.9,4.5c2.4,3,3.7,7.4,3.9,13.2v1.4H23.1V60
		c0-1.3-0.1-2.5-0.3-3.4c-0.2-1-0.4-2-0.7-3c-0.3-1-0.9-1.7-1.6-2.3c-0.7-0.5-1.6-0.8-2.6-0.8c-1,0-1.9,0.3-2.6,0.9
		c-0.7,0.6-1.3,1.5-1.6,2.6s-0.6,2.3-0.8,3.5c-0.2,1.2-0.3,2.6-0.3,4.2c-0.1,3.4-0.1,8.5,0,15.3c0.1,1.5,0.2,2.8,0.3,4
		c0.2,1.1,0.4,2.2,0.8,3.3c0.4,1.1,0.9,1.9,1.6,2.4c0.7,0.6,1.6,0.9,2.6,0.9c0.9,0,1.7-0.2,2.4-0.5c0.7-0.4,1.2-0.8,1.5-1.3
		c0.4-0.5,0.6-1.2,0.8-2.1c0.2-0.9,0.3-1.7,0.4-2.4c0.1-0.8,0.1-1.7,0.1-2.9v-1.3h10.5v1.4c-0.1,2.8-0.4,5.2-1,7.3
		c-0.6,2.1-1.5,4-2.7,5.6C28.6,93,27,94.3,25,95.1S20.6,96.3,17.8,96.3z"/>
	<path style="fill:#333333;" d="M67,91.4c-2.4,3.3-6.5,4.9-12.1,4.9c-5.6,0-9.7-1.6-12.1-4.9c-2.4-3.3-3.7-8-3.7-14.2V61.5
		c0-6.2,1.2-10.9,3.7-14.2c2.4-3.3,6.5-4.9,12.1-4.9c5.6,0,9.7,1.6,12.1,4.9c2.4,3.3,3.7,8,3.7,14.2v15.8
		C70.6,83.4,69.4,88.1,67,91.4z M52.9,87.4c0.6,0.2,1.2,0.3,1.9,0.3s1.4-0.1,1.9-0.3c0.6-0.2,1-0.5,1.4-0.8c0.4-0.3,0.7-0.8,0.9-1.4
		s0.4-1.2,0.6-1.6c0.1-0.5,0.2-1.1,0.3-2c0.1-0.9,0.1-1.6,0.1-2.1c0-0.5,0-1.3,0-2.3V61.5c0-1,0-1.8,0-2.3c0-0.5,0-1.2-0.1-2.1
		c-0.1-0.9-0.2-1.5-0.3-2c-0.1-0.5-0.3-1-0.6-1.6s-0.6-1.1-0.9-1.4c-0.4-0.3-0.8-0.6-1.4-0.8c-0.6-0.2-1.2-0.3-1.9-0.3
		s-1.4,0.1-1.9,0.3c-0.6,0.2-1,0.5-1.4,0.8c-0.4,0.3-0.7,0.8-0.9,1.4s-0.4,1.2-0.6,1.6c-0.1,0.5-0.2,1.1-0.3,2
		c-0.1,0.9-0.1,1.6-0.1,2.1c0,0.5,0,1.3,0,2.3v15.8c0,1,0,1.8,0,2.3c0,0.5,0,1.2,0.1,2.1c0.1,0.9,0.1,1.5,0.3,2
		c0.1,0.5,0.3,1,0.6,1.6s0.6,1.1,0.9,1.4C51.9,86.9,52.4,87.2,52.9,87.4z"/>
	<path style="fill:#333333;" d="M79.2,95.6V43.1h10.5v5.9c3.7-4.5,8.1-6.7,13.1-6.7c2.5,0,4.4,0.6,5.5,1.7c1.2,1.1,2,2.9,2.4,5.3
		c1.7-2.3,3.6-4,5.6-5.2c2-1.2,4.5-1.8,7.5-1.8c0.9,0,1.7,0.1,2.4,0.3c0.7,0.2,1.3,0.4,1.8,0.6c0.5,0.2,1,0.6,1.4,1.1
		c0.4,0.5,0.7,1,1,1.4c0.3,0.4,0.5,1,0.7,1.8c0.2,0.8,0.3,1.4,0.4,2c0.1,0.5,0.1,1.3,0.2,2.3c0.1,1,0.1,1.8,0.1,2.4s0,1.4,0,2.6
		c0,0.2,0,0.4,0,0.6v38.2h-10.5V57.3c0-0.1,0-0.4,0-0.7c0-0.9,0-1.6,0-2.1c0-0.5-0.1-1.1-0.3-1.7c-0.2-0.6-0.4-1.1-0.8-1.4
		c-0.4-0.3-0.9-0.5-1.5-0.5c-1.1,0-2.1,0.2-3.2,0.6c-1.1,0.4-1.9,0.8-2.5,1.2c-0.6,0.4-1.3,1-2.2,1.7v41.1h-10.5V57.5
		c0-0.2,0-0.4,0-0.7c0-0.8,0-1.3,0-1.7c0-0.4,0-0.9-0.1-1.5c-0.1-0.6-0.2-1.1-0.4-1.4c-0.2-0.3-0.4-0.6-0.8-0.8
		c-0.4-0.2-0.8-0.4-1.3-0.4c-2.6,0-5.2,1.1-7.9,3.3v41.3H79.2z"/>
	<path style="fill:#333333;" d="M140.9,111.4V43.1h10.5v5.3c0.8-0.9,1.4-1.5,1.8-1.8s0.9-0.8,1.7-1.5c0.8-0.7,1.5-1.2,2.1-1.4
		c0.6-0.3,1.3-0.5,2.3-0.8c0.9-0.3,1.9-0.4,2.9-0.4c1.8,0,3.4,0.3,4.8,1c1.4,0.6,2.5,1.4,3.4,2.3s1.7,2.2,2.3,3.9
		c0.6,1.7,1.1,3.2,1.4,4.6c0.3,1.4,0.6,3.2,0.7,5.5c0.2,2.3,0.3,4.2,0.3,5.6c0,1.4,0,3.4,0,5.9V72c0,2.3-0.1,4.5-0.3,6.6
		c-0.2,2.1-0.7,4.3-1.3,6.5c-0.6,2.2-1.4,4.1-2.3,5.7c-0.9,1.6-2.2,2.9-3.8,4c-1.6,1-3.4,1.5-5.4,1.5c-3.6,0-7.1-1.8-10.5-5.5v20.5
		H140.9z M159.3,87.7c1.1,0,2.1-0.4,2.8-1.2c0.8-0.8,1.3-2,1.6-3.5c0.3-1.5,0.6-3,0.7-4.5c0.1-1.5,0.2-3.2,0.2-5.2l-0.1-6.9
		c0-1.2,0-2.2,0-3c0-0.8-0.1-1.7-0.1-3c-0.1-1.2-0.2-2.3-0.3-3.1c-0.2-0.8-0.4-1.7-0.7-2.6c-0.3-1-0.7-1.7-1.1-2.3
		c-0.4-0.5-1-1-1.6-1.4c-0.7-0.4-1.4-0.6-2.3-0.6c-0.4,0-0.8,0-1.2,0.1c-0.4,0.1-0.8,0.1-1.1,0.3c-0.4,0.1-0.7,0.2-1,0.3
		c-0.3,0.1-0.6,0.3-1,0.5c-0.4,0.2-0.7,0.4-0.9,0.5c-0.2,0.1-0.5,0.3-0.9,0.6c-0.4,0.3-0.7,0.4-0.8,0.5v32.5
		C153.8,87,156.5,87.7,159.3,87.7z"/>
	<path style="fill:#333333;" d="M183.7,95.6V43.1h10.5v7c1.1-2.1,2.6-3.9,4.7-5.4c2-1.5,4.3-2.3,6.8-2.3c0.1,0,0.6,0.1,1.7,0.2v11.6
		c-1.9-0.8-3.9-1.1-5.8-1.1c-2.2,0-4,0.7-5.3,2s-2,3-2,5.2v35.4H183.7z"/>
	<path style="fill:#333333;" d="M238.5,91.4c-2.4,3.3-6.5,4.9-12.1,4.9s-9.7-1.6-12.1-4.9s-3.7-8-3.7-14.2V61.5
		c0-6.2,1.2-10.9,3.7-14.2s6.5-4.9,12.1-4.9s9.7,1.6,12.1,4.9s3.7,8,3.7,14.2v15.8C242.2,83.4,241,88.1,238.5,91.4z M224.5,87.4
		c0.6,0.2,1.2,0.3,1.9,0.3s1.4-0.1,1.9-0.3c0.6-0.2,1-0.5,1.4-0.8c0.4-0.3,0.7-0.8,0.9-1.4s0.4-1.2,0.6-1.6c0.1-0.5,0.2-1.1,0.3-2
		c0.1-0.9,0.1-1.6,0.1-2.1c0-0.5,0-1.3,0-2.3V61.5c0-1,0-1.8,0-2.3c0-0.5,0-1.2-0.1-2.1c-0.1-0.9-0.2-1.5-0.3-2
		c-0.1-0.5-0.3-1-0.6-1.6s-0.6-1.1-0.9-1.4c-0.4-0.3-0.8-0.6-1.4-0.8c-0.6-0.2-1.2-0.3-1.9-0.3s-1.4,0.1-1.9,0.3
		c-0.6,0.2-1,0.5-1.4,0.8c-0.4,0.3-0.7,0.8-0.9,1.4s-0.4,1.2-0.6,1.6c-0.1,0.5-0.2,1.1-0.3,2c-0.1,0.9-0.1,1.6-0.1,2.1
		c0,0.5,0,1.3,0,2.3v15.8c0,1,0,1.8,0,2.3c0,0.5,0,1.2,0.1,2.1c0.1,0.9,0.2,1.5,0.3,2c0.1,0.5,0.3,1,0.6,1.6s0.6,1.1,0.9,1.4
		C223.5,86.9,223.9,87.2,224.5,87.4z"/>
	<path style="fill:#333333;" d="M251.3,95.6V22.1h16.3c7.7,0,13.1,1.6,16.3,4.7c3.2,3.1,4.7,8.6,4.7,16.3V72c0,8.1-1.6,14-4.8,17.9
		c-3.2,3.8-8.6,5.8-16.3,5.8H251.3z M261.8,87.7h5.8c1.7,0,3.2-0.2,4.4-0.5c1.2-0.3,2.2-0.9,3-1.7c0.8-0.8,1.4-1.6,1.8-2.4
		c0.4-0.8,0.7-1.9,0.9-3.5c0.2-1.6,0.3-2.9,0.3-3.9s0-2.6,0-4.8c0-0.7,0-1.2,0-1.6V45.7c0-1.3,0-2.4,0-3.2c0-0.8-0.1-1.7-0.1-2.8
		c-0.1-1.1-0.2-1.9-0.3-2.6c-0.1-0.6-0.3-1.3-0.6-2.1s-0.6-1.4-0.9-1.8c-0.4-0.4-0.8-0.9-1.4-1.4c-0.5-0.5-1.1-0.8-1.8-1.1
		c-0.7-0.2-1.5-0.4-2.4-0.6c-0.9-0.1-2-0.2-3.1-0.2h-5.6V87.7z"/>
	<path style="fill:#333333;" d="M297.7,95.6V22.1h10.5v65.6h18.4v7.9H297.7z"/>
	<path style="fill:#333333;" d="M350.6,96.3c-6.6,0-11.7-1.9-15.2-5.8c-3.5-3.9-5.4-9.2-5.8-15.9l10.5-2.6
		c0.5,10.5,4,15.8,10.5,15.8c5.3,0,7.9-2.6,7.9-7.9c0-1.6-0.2-3-0.6-4.3c-0.4-1.3-1.1-2.5-1.9-3.7s-1.7-2-2.4-2.7
		c-0.7-0.7-1.7-1.5-2.9-2.5l-13.1-10.5c-2.4-1.9-4.3-4.3-5.8-7.2s-2.2-6.2-2.2-9.9c0-5.4,1.7-9.7,5-12.9s7.8-4.8,13.4-4.8
		c6,0,10.7,1.5,14.2,4.4s5.7,7,6.5,12.4c0.1,0.6,0.2,1.4,0.3,2.4l-10.5,2.6c0-0.5-0.1-1.2-0.2-2.1c-0.5-3.3-1.5-6-3.1-8s-4-3-7.2-3
		c-2.5,0-4.5,0.7-5.8,2.1c-1.4,1.4-2.1,3.4-2.1,5.9c0,4.1,1.8,7.6,5.3,10.4l13.1,10.5c7,5.7,10.5,12.4,10.5,20.3
		c0,5.4-1.7,9.6-5,12.6S356.2,96.3,350.6,96.3z"/>
</g>
<g>
	<g>
		<path style="fill:#333333;" d="M379.1,31.5V6.1h-4.4V1.6h14.7v4.5h-4.3v25.4H379.1z"/>
		<path style="fill:#333333;" d="M391.5,31.5V1.6h7.2l3.2,19.9l3.4-19.9h7v29.9h-4.4l-0.1-21c-0.3,2.2-0.9,5.7-1.7,10.5
			s-1.4,8.4-1.7,10.5h-4.5l-3.7-21.2l-0.1,21.2H391.5z"/>
	</g>
</g>
</svg>
