<?xml version="1.0" encoding="utf-8"?>
<!-- Generator: Adobe Illustrator 25.3.1, SVG Export Plug-In . SVG Version: 6.00 Build 0)  -->
<svg version="1.1" id="Layer_2_1_" xmlns="http://www.w3.org/2000/svg" xmlns:xlink="http://www.w3.org/1999/xlink" x="0px" y="0px"
	 width="24px" height="24px" viewBox="0 0 24 24" style="enable-background:new 0 0 24 24;" xml:space="preserve">
<style type="text/css">
	.st0{fill-rule:evenodd;clip-rule:evenodd;}
</style>
<path class="st0" d="M21.7,2c0.3,0.3,0.3,0.7,0,1l0,0l-18,17.4c-0.3,0.3-0.7,0.3-1,0s-0.3-0.7,0-1l0,0L20.7,2
	C21,1.7,21.5,1.7,21.7,2z"/>
<path class="st0" d="M19.9,7.6c1.1,0.8,2.2,1.7,3.1,2.8c0.8,0.9,0.8,2.2,0,3.1c-3,3.3-7.1,5.7-10.9,5.7H12h-0.1
	c-1,0-1.9-0.1-2.9-0.4H8.9c-0.4-0.1-0.6-0.5-0.5-0.9s0.5-0.6,0.9-0.5c0.8,0.3,1.7,0.4,2.6,0.4h0.2c3.3,0.1,7.1-2.1,9.9-5.2
	c0.3-0.3,0.3-0.8,0-1.2c-0.9-0.9-1.8-1.8-2.9-2.6c-0.3-0.2-0.4-0.7-0.2-1C19.1,7.5,19.6,7.4,19.9,7.6z"/>
<path class="st0" d="M15.6,11.2c0.4,0,0.7,0.3,0.7,0.7c0,1.1-0.5,2.3-1.3,3.1s-1.9,1.3-3.1,1.3c-0.4,0-0.7-0.3-0.7-0.7
	s0.3-0.7,0.7-0.7l0,0c0.8,0,1.5-0.3,2-0.8s0.8-1.2,0.8-2V12C14.9,11.5,15.2,11.2,15.6,11.2z"/>
<path class="st0" d="M11.9,4.7H12h0.1c0.7,0,1.5,0.1,2.2,0.3h0.1c0.4,0.1,0.6,0.5,0.5,0.9S14.4,6.5,14,6.4c-0.7-0.2-1.3-0.2-2-0.3
	h-0.2c-3,0-6.8,2.1-9.7,5.2c-0.3,0.3-0.3,0.8,0,1.2c0.7,0.8,1.5,1.6,2.4,2.2c0.3,0.2,0.4,0.7,0.1,1c-0.2,0.3-0.7,0.4-1,0.1
	c-0.9-0.7-1.8-1.5-2.6-2.4c-0.8-0.9-0.8-2.2,0-3.1C4.1,7,8.2,4.7,11.9,4.7z"/>
<path class="st0" d="M12,7.6c0.4,0,0.7,0.3,0.7,0.7C12.7,8.7,12.4,9,12,9l0,0c-0.8,0-1.5,0.3-2,0.8s-0.8,1.2-0.8,2v0.1
	c0,0.4-0.3,0.7-0.7,0.7s-0.7-0.3-0.7-0.7c0-1.1,0.5-2.3,1.3-3.1C9.9,8,10.9,7.6,12,7.6z"/>
</svg>
