<?xml version="1.0" encoding="utf-8"?>
<!-- Generator: Adobe Illustrator 25.3.1, SVG Export Plug-In . SVG Version: 6.00 Build 0)  -->
<svg version="1.1" id="Layer_1" xmlns="http://www.w3.org/2000/svg" xmlns:xlink="http://www.w3.org/1999/xlink" x="0px" y="0px"
	 width="24px" height="24px" viewBox="0 0 24 24" style="enable-background:new 0 0 24 24;" xml:space="preserve">
<style type="text/css">
	.st0{fill-rule:evenodd;clip-rule:evenodd;}
</style>
<g id="Group" transform="translate(0.000000, 5.000000)">
	<path id="Path" class="st0" d="M12.1-0.3H12H12.1C8.3-0.3,4.1,2,1,5.4C0.2,6.3,0.2,7.7,1,8.6l0.1,0.1c3,3.3,7.1,5.6,10.8,5.6H12
		l0,0c3.8,0.1,8-2.3,11-5.7c0.8-0.9,0.8-2.2,0-3.1C20,2.1,15.8-0.3,12.1-0.3z M12,1.2c3.3-0.1,7.1,2.1,9.9,5.2
		c0.3,0.3,0.3,0.8,0,1.2c-2.8,3.1-6.6,5.2-9.8,5.2H12c-3.3,0.1-7.1-2.1-9.9-5.2c-0.3-0.3-0.3-0.8,0-1.2c2.8-3.1,6.6-5.2,9.8-5.2
		L12,1.2z"/>
	<path id="Path_1_" class="st0" d="M12.1,2.6L12.1,2.6c-2.5,0-4.4,2-4.4,4.4s2,4.4,4.4,4.4s4.4-2,4.4-4.4c0-1.2-0.5-2.3-1.3-3.1
		C14.3,3.1,13.2,2.7,12.1,2.6z M12,4.1c0.8,0,1.5,0.3,2.1,0.9S15,6.3,15,7.1c0,1.6-1.3,2.9-2.9,2.9s-3-1.4-3-3S10.4,4.1,12,4.1z"/>
</g>
</svg>
