<?xml version="1.0" encoding="utf-8"?>
<!-- Generator: Adobe Illustrator 26.3.1, SVG Export Plug-In . SVG Version: 6.00 Build 0)  -->
<svg version="1.1" id="Layer_1" xmlns="http://www.w3.org/2000/svg" xmlns:xlink="http://www.w3.org/1999/xlink" x="0px" y="0px"
	 width="24px" height="24px" viewBox="0 0 24 24" style="enable-background:new 0 0 24 24;" xml:space="preserve">
<style type="text/css">
	.st0{fill-rule:evenodd;clip-rule:evenodd;}
</style>
<g id="Symbols">
	<g id="Group-6" transform="translate(2.000000, 1.000000)">
		<g id="Group-3">
			<defs>
				<filter id="Adobe_OpacityMaskFilter" filterUnits="userSpaceOnUse" x="0.7" y="0.4" width="19.2" height="22">
					<feColorMatrix  type="matrix" values="1 0 0 0 0  0 1 0 0 0  0 0 1 0 0  0 0 0 1 0"/>
				</filter>
			</defs>
			
				<mask maskUnits="userSpaceOnUse" x="0.7" y="0.4" width="19.2" height="22" id="mask-2_00000018915537888384768700000007203926751803264438_">
				<g class="st0">
					<polygon id="path-1_00000126286495352348176530000004305299193263773335_" class="st1" points="0.7,0.4 19.9,0.4 19.9,22.4 
						0.7,22.4 					"/>
				</g>
			</mask>
			<path id="Fill-1" class="st2" d="M18.6,11c0,4.2-2.6,8-6.6,9.5l-1,0.4c-0.5,0.2-1,0.2-1.5,0l-1-0.4C4.7,19,2.1,15.2,2.1,11V4v0
				c0-0.3,0.2-0.5,0.4-0.6c2.4-1.1,5-1.6,7.7-1.6c0.1,0,0.1,0,0.2,0c2.7,0,5.4,0.5,7.8,1.6c0.2,0.1,0.4,0.4,0.4,0.6V11z M18.7,2.1
				C16,1,13.2,0.4,10.3,0.4C7.4,0.4,4.6,1,1.9,2.1C1.1,2.5,0.7,3.2,0.7,4v7c0,4.8,3,9.1,7.4,10.8l1,0.4c0.4,0.2,0.8,0.2,1.2,0.2
				c0.4,0,0.8-0.1,1.2-0.2l1-0.4c4.4-1.7,7.4-6.1,7.4-10.8V4C19.9,3.2,19.5,2.5,18.7,2.1L18.7,2.1z"/>
		</g>
		<path id="Fill-4" class="st3" d="M11.4,17.5l-0.7,0.3c-0.3,0.1-0.6,0.1-0.9,0l-0.7-0.3c-0.3-0.1-0.6-0.2-0.8-0.4l7.4-7.4v1.5
			C15.8,14,14,16.5,11.4,17.5L11.4,17.5z M4.8,5.8L4.8,5.8c0-0.1,0.1-0.2,0.1-0.2c1.7-0.7,3.4-1.1,5.3-1.1c0,0,0.1,0,0.1,0
			c1.2,0,2.3,0.1,3.4,0.4l-8.5,8.5C5,12.7,4.8,12,4.8,11.2V5.8z M15.8,5.8v1.9l-8.6,8.6c-0.5-0.4-1-1-1.4-1.6l9.3-9.3
			c0.2,0.1,0.3,0.1,0.5,0.2C15.7,5.7,15.8,5.7,15.8,5.8L15.8,5.8z M17.2,8V5.8c0-0.6-0.4-1.2-1-1.5c-0.3-0.1-0.6-0.2-0.8-0.3
			C15.3,4,15.2,4,15.1,4c-1.6-0.5-3.2-0.8-4.8-0.8c-2.1,0-4,0.4-5.9,1.2C3.8,4.6,3.4,5.2,3.4,5.8v5.3c0,1.3,0.4,2.6,0.9,3.7
			c0,0,0,0,0,0c0.9,1.7,2.4,3.1,4.3,3.8L9.4,19c0.3,0.1,0.6,0.2,0.9,0.2c0.3,0,0.6-0.1,0.9-0.2l0.6-0.3c3.2-1.2,5.3-4.2,5.3-7.6V8
			C17.2,8,17.2,8,17.2,8L17.2,8z"/>
	</g>
</g>
</svg>
