<?xml version="1.0" encoding="UTF-8"?>
<svg width="1077px" height="221px" viewBox="0 0 1077 221" version="1.1" xmlns="http://www.w3.org/2000/svg" xmlns:xlink="http://www.w3.org/1999/xlink">
    <title>illustration-bg</title>
    <g id="Signup-desktop" stroke="none" stroke-width="1" fill="none" fill-rule="evenodd">
        <g id="1)-Welcome" transform="translate(-182.000000, -441.000000)" fill-rule="nonzero">
            <g id="illustration-bg" transform="translate(182.000000, 441.000000)">
                <path d="M801.746745,174.000771 C801.822288,174.000871 801.905053,174.000981 801.994908,174.001099 L802.618039,174.001915 C809.090369,174.010341 836.202789,174.044089 861.837823,174.053102 L864.627448,174.053985 C865.091054,174.054115 865.553906,174.054236 866.015871,174.054348 L868.775949,174.054909 C869.233833,174.054984 869.690564,174.055049 870.146009,174.055103 L876.864617,174.055141 C877.303878,174.055089 877.741189,174.055025 878.176416,174.054949 L880.761711,174.054351 C890.568009,174.051498 899.131412,174.042091 904.834469,174.022469 C900.913893,175.060641 889.685331,175.871921 878.378387,175.879239 L877.26623,175.877345 C872.633316,175.858484 868.027049,175.701406 863.945106,175.366388 C852.700238,174.443485 844.227485,174.858688 835.972952,175.413499 L834.598779,175.507055 L834.598779,175.507055 L833.22602,175.601962 C831.853092,175.697135 830.478343,175.792487 829.089949,175.88247 C826.650619,176.040564 823.863131,176.027336 821.015165,175.913005 L820.237163,175.87937 L820.237163,175.87937 L819.45746,175.841039 C810.356033,175.367669 801.171862,174 801.171862,174 Z M8.44047794,172 L1068.70075,172.008956 L1069.01203,172.009019 L1069.01203,172.009019 L1069.92765,172.009958 C1073.93101,172.016556 1077,172.05496 1077,172.101376 L1076.87539,173.907765 C1076.87539,173.932232 1076.00309,173.955775 1074.44127,173.97304 C1073.00726,173.988892 1071.0919,173.998451 1069.07417,173.999827 L1068.56783,174 L208.79259,173.992826 C202.551449,175.429177 182.364482,176.375515 168.354222,175.225648 C155.23521,174.148928 145.889353,174.893518 136.261163,175.556249 L134.883348,175.650163 C134.423145,175.681145 133.961863,175.711735 133.499065,175.741729 C124.330131,176.335972 110.242238,174.509687 106.51295,173.991987 L8.29924947,173.991137 C8.09080531,173.991137 7.88416341,173.991051 7.6795906,173.990883 L7.07234625,173.990135 C3.06899007,173.983536 0,173.945132 0,173.898717 L0.124613355,172.092235 C0.124613355,172.067768 0.996906843,172.044225 2.55872756,172.02696 C3.8732387,172.012351 5.5922148,172.003162 7.42374564,172.000681 L8.44047794,172 Z" id="ground-line" fill="#361610"></path>
                <g id="calendar" transform="translate(950.000000, 0.000000)">
                    <path d="M90.25,8.75 L10.25,8.75 C10.237,8.75 10.224,8.75 10.211,8.75 L6.75,8.75 C3.4362915,8.75 0.75,11.4362915 0.75,14.75 L0.75,64.25 C0.75,67.5637085 3.4362915,70.25 6.75,70.25 L90.25,70.25 C93.5637085,70.25 96.25,67.5637085 96.25,64.25 L96.25,14.75 C96.25,11.4362915 93.5637085,8.75 90.25,8.75 Z" id="highlight" fill="#FFFFFF"></path>
                    <rect id="primary" fill="#D56D58" x="60.75" y="40.25" width="12" height="8.5" rx="4"></rect>
                    <path d="M85,0 C87.1655,0 88.357,3.91 88.487,8 L88.487,8 L90.25,8 C93.9762086,8.00413335 96.9958667,11.0237914 97,14.75 L97,14.75 L97,64.25 C96.9958667,67.9762086 93.9762086,70.9958667 90.25,71 L90.25,71 L6.75,71 C3.02436149,70.9944928 0.00550723519,67.9756385 0,64.25 L0,64.25 L0,14.75 C0.00550723519,11.0243615 3.02436149,8.00550724 6.75,8 L6.75,8 L11.513,8 C11.643,3.91 12.8345,0 15,0 C17.1655,0 18.357,3.91 18.487,8 L18.487,8 L25.513,8 C25.643,3.91 26.8345,0 29,0 C31.1655,0 32.357,3.91 32.487,8 L32.487,8 L39.513,8 C39.643,3.91 40.8345,0 43,0 C45.1655,0 46.357,3.91 46.487,8 L46.487,8 L53.513,8 C53.643,3.91 54.8345,0 57,0 C59.1655,0 60.357,3.91 60.487,8 L60.487,8 L67.513,8 C67.643,3.91 68.8345,0 71,0 C73.1655,0 74.357,3.91 74.487,8 L74.487,8 L81.513,8 C81.643,3.91 82.8345,0 85,0 Z M90.25,9.4955 L88.488,9.4955 C88.413,11.8555 87.982,14.1485 87.217,15.672 C87.7525046,16.6424506 87.5135982,17.8573326 86.6505012,18.5527485 C85.7874043,19.2481643 84.5495068,19.2231749 83.7151782,18.4934933 C82.8808496,17.7638117 82.6911673,16.5402778 83.2654004,15.5922294 C83.8396335,14.644181 85.0118586,14.2455546 86.045,14.647 C86.652913,12.9972861 86.9717525,11.2550859 86.9875,9.497 L86.9875,9.497 L74.4875,9.497 C74.4125,11.857 73.9815,14.15 73.2165,15.6735 C73.7520046,16.6439506 73.5130982,17.8588326 72.6500012,18.5542485 C71.7869043,19.2496643 70.5490068,19.2246749 69.7146782,18.4949933 C68.8803496,17.7653117 68.6906673,16.5417778 69.2649004,15.5937294 C69.8391335,14.645681 71.0113586,14.2470546 72.0445,14.6485 C72.652413,12.9987861 72.9712525,11.2565859 72.987,9.4985 L72.987,9.4985 L60.487,9.4985 C60.412,11.8585 59.981,14.1515 59.216,15.675 C59.7515046,16.6454506 59.5125982,17.8603326 58.6495012,18.5557485 C57.7864043,19.2511643 56.5485068,19.2261749 55.7141782,18.4964933 C54.8798496,17.7668117 54.6901673,16.5432778 55.2644004,15.5952294 C55.8386335,14.647181 57.0108586,14.2485546 58.044,14.65 C58.651913,13.0002861 58.9707525,11.2580859 58.9865,9.5 L58.9865,9.5 L48,9.5 L48,9.5225 L46.4865,9.5225 C46.4095,11.875 45.9785,14.1565 45.216,15.675 C45.7515046,16.6454506 45.5125982,17.8603326 44.6495012,18.5557485 C43.7864043,19.2511643 42.5485068,19.2261749 41.7141782,18.4964933 C40.8798496,17.7668117 40.6901673,16.5432778 41.2644004,15.5952294 C41.8386335,14.647181 43.0108586,14.2485546 44.044,14.65 C44.6505043,13.0073355 44.9695021,11.2724678 44.987,9.5215 L44.987,9.5215 L32.487,9.514 C32.4105,11.8685 31.9795,14.155 31.216,15.675 C31.7515046,16.6454506 31.5125982,17.8603326 30.6495012,18.5557485 C29.7864043,19.2511643 28.5485068,19.2261749 27.7141782,18.4964933 C26.8798496,17.7668117 26.6901673,16.5432778 27.2644004,15.5952294 C27.8386335,14.647181 29.0108586,14.2485546 30.044,14.65 C30.6508853,13.0044938 30.9698796,11.2667695 30.987,9.513 L30.987,9.513 L18.487,9.5055 C18.4115,11.863 17.9805,14.153 17.216,15.675 C17.7515046,16.6454506 17.5125982,17.8603326 16.6495012,18.5557485 C15.7864043,19.2511643 14.5485068,19.2261749 13.7141782,18.4964933 C12.8798496,17.7668117 12.6901673,16.5432778 13.2644004,15.5952294 C13.8386335,14.647181 15.0108586,14.2485546 16.044,14.65 C16.6516058,13.0015884 16.9704429,11.2607549 16.9865,9.504 L16.9865,9.504 L10.209,9.5 C7.31403275,9.53837413 4.99014796,11.9012952 4.99996879,14.7965 L4.99996879,14.7965 L4.99996879,64.25 C5.00330648,67.1481242 7.35187576,69.4966935 10.25,69.5 L10.25,69.5 L90.25,69.5 C93.1481242,69.4966935 95.4966935,67.1481242 95.5,64.25 L95.5,64.25 L95.5,14.75 C95.5,11.8501186 93.1498797,9.49881025 90.25,9.4955 L90.25,9.4955 Z M5.9425,9.5685 C3.38859136,9.96753477 1.50444079,12.1651096 1.5,14.75 L1.5,14.75 L1.5,64.25 C1.50436632,66.8294904 3.38097737,69.0241316 5.9285,69.429 C4.38986772,68.1491224 3.49998644,66.2513686 3.5,64.25 L3.5,64.25 L3.5,14.7965 C3.49829002,12.7777835 4.39308512,10.8625374 5.9425,9.5685 Z M21.25,53.5 C22.7679836,53.5019283 23.9980717,54.7320164 24,56.25 L24,60.75 C23.9980717,62.2679836 22.7679836,63.4980717 21.25,63.5 L13.25,63.5 C11.7320164,63.4980717 10.5019283,62.2679836 10.5,60.75 L10.5,56.25 C10.5019283,54.7320164 11.7320164,53.5019283 13.25,53.5 L21.25,53.5 Z M37.75,53.5 C39.2679836,53.5019283 40.4980717,54.7320164 40.5,56.25 L40.5,60.75 C40.4980717,62.2679836 39.2679836,63.4980717 37.75,63.5 L29.75,63.5 C28.2320164,63.4980717 27.0019283,62.2679836 27,60.75 L27,56.25 C27.0019283,54.7320164 28.2320164,53.5019283 29.75,53.5 L37.75,53.5 Z M54.25,53.5 C55.7679836,53.5019283 56.9980717,54.7320164 57,56.25 L57,60.75 C56.9980717,62.2679836 55.7679836,63.4980717 54.25,63.5 L46.25,63.5 C44.7320164,63.4980717 43.5019283,62.2679836 43.5,60.75 L43.5,56.25 C43.5019283,54.7320164 44.7320164,53.5019283 46.25,53.5 L54.25,53.5 Z M70.75,53.5 C72.2679836,53.5019283 73.4980717,54.7320164 73.5,56.25 L73.5,60.75 C73.4980717,62.2679836 72.2679836,63.4980717 70.75,63.5 L62.75,63.5 C61.2320164,63.4980717 60.0019283,62.2679836 60,60.75 L60,56.25 C60.0019283,54.7320164 61.2320164,53.5019283 62.75,53.5 L70.75,53.5 Z M87.25,53.5 C88.7679836,53.5019283 89.9980717,54.7320164 90,56.25 L90,60.75 C89.9980717,62.2679836 88.7679836,63.4980717 87.25,63.5 L79.25,63.5 C77.7320164,63.4980717 76.5019283,62.2679836 76.5,60.75 L76.5,56.25 C76.5019283,54.7320164 77.7320164,53.5019283 79.25,53.5 L87.25,53.5 Z M21.25,55 L13.25,55 C12.5596441,55 12,55.5596441 12,56.25 L12,60.75 C12,61.4403559 12.5596441,62 13.25,62 L21.25,62 C21.9403559,62 22.5,61.4403559 22.5,60.75 L22.5,56.25 C22.5,55.5596441 21.9403559,55 21.25,55 Z M37.75,55 L29.75,55 C29.0596441,55 28.5,55.5596441 28.5,56.25 L28.5,60.75 C28.5,61.4403559 29.0596441,62 29.75,62 L37.75,62 C38.4403559,62 39,61.4403559 39,60.75 L39,56.25 C39,55.5596441 38.4403559,55 37.75,55 Z M54.25,55 L46.25,55 C45.5596441,55 45,55.5596441 45,56.25 L45,60.75 C45,61.4403559 45.5596441,62 46.25,62 L54.25,62 C54.9403559,62 55.5,61.4403559 55.5,60.75 L55.5,56.25 C55.5,55.5596441 54.9403559,55 54.25,55 Z M70.75,55 L62.75,55 C62.0596441,55 61.5,55.5596441 61.5,56.25 L61.5,60.75 C61.5,61.4403559 62.0596441,62 62.75,62 L70.75,62 C71.4403559,62 72,61.4403559 72,60.75 L72,56.25 C72,55.5596441 71.4403559,55 70.75,55 Z M87.25,55 L79.25,55 C78.5596441,55 78,55.5596441 78,56.25 L78,60.75 C78,61.4403559 78.5596441,62 79.25,62 L87.25,62 C87.9403559,62 88.5,61.4403559 88.5,60.75 L88.5,56.25 C88.5,55.5596441 87.9403559,55 87.25,55 Z M21.25,39.5 C22.7679836,39.5019283 23.9980717,40.7320164 24,42.25 L24,46.75 C23.9980717,48.2679836 22.7679836,49.4980717 21.25,49.5 L13.25,49.5 C11.7320164,49.4980717 10.5019283,48.2679836 10.5,46.75 L10.5,42.25 C10.5019283,40.7320164 11.7320164,39.5019283 13.25,39.5 L21.25,39.5 Z M37.75,39.5 C39.2679836,39.5019283 40.4980717,40.7320164 40.5,42.25 L40.5,46.75 C40.4980717,48.2679836 39.2679836,49.4980717 37.75,49.5 L29.75,49.5 C28.2320164,49.4980717 27.0019283,48.2679836 27,46.75 L27,42.25 C27.0019283,40.7320164 28.2320164,39.5019283 29.75,39.5 L37.75,39.5 Z M54.25,39.5 C55.7679836,39.5019283 56.9980717,40.7320164 57,42.25 L57,46.75 C56.9980717,48.2679836 55.7679836,49.4980717 54.25,49.5 L46.25,49.5 C44.7320164,49.4980717 43.5019283,48.2679836 43.5,46.75 L43.5,42.25 C43.5019283,40.7320164 44.7320164,39.5019283 46.25,39.5 L54.25,39.5 Z M70.75,39.5 C72.2679836,39.5019283 73.4980717,40.7320164 73.5,42.25 L73.5,46.75 C73.4980717,48.2679836 72.2679836,49.4980717 70.75,49.5 L62.75,49.5 C61.2320164,49.4980717 60.0019283,48.2679836 60,46.75 L60,42.25 C60.0019283,40.7320164 61.2320164,39.5019283 62.75,39.5 L70.75,39.5 Z M87.25,39.5 C88.7679836,39.5019283 89.9980717,40.7320164 90,42.25 L90,46.75 C89.9980717,48.2679836 88.7679836,49.4980717 87.25,49.5 L79.25,49.5 C77.7320164,49.4980717 76.5019283,48.2679836 76.5,46.75 L76.5,42.25 C76.5019283,40.7320164 77.7320164,39.5019283 79.25,39.5 L87.25,39.5 Z M21.25,41 L13.25,41 C12.5596441,41 12,41.5596441 12,42.25 L12,46.75 C12,47.4403559 12.5596441,48 13.25,48 L21.25,48 C21.5815206,48 21.899463,47.8683039 22.1338835,47.6338835 C22.3683039,47.399463 22.5,47.0815206 22.5,46.75 L22.5,42.25 C22.5,41.5596441 21.9403559,41 21.25,41 Z M37.75,41 L29.75,41 C29.0596441,41 28.5,41.5596441 28.5,42.25 L28.5,46.75 C28.5,47.4403559 29.0596441,48 29.75,48 L37.75,48 C38.0815206,48 38.399463,47.8683039 38.6338835,47.6338835 C38.8683039,47.399463 39,47.0815206 39,46.75 L39,42.25 C39,41.5596441 38.4403559,41 37.75,41 Z M54.25,41 L46.25,41 C45.5596441,41 45,41.5596441 45,42.25 L45,46.75 C45,47.4403559 45.5596441,48 46.25,48 L54.25,48 C54.9403559,48 55.5,47.4403559 55.5,46.75 L55.5,42.25 C55.5,41.5596441 54.9403559,41 54.25,41 Z M70.75,41 L62.75,41 C62.0596441,41 61.5,41.5596441 61.5,42.25 L61.5,46.75 C61.5,47.4403559 62.0596441,48 62.75,48 L70.75,48 C71.4403559,48 72,47.4403559 72,46.75 L72,42.25 C72,41.5596441 71.4403559,41 70.75,41 Z M87.25,41 L79.25,41 C78.5596441,41 78,41.5596441 78,42.25 L78,46.75 C78,47.4403559 78.5596441,48 79.25,48 L87.25,48 C87.9403559,48 88.5,47.4403559 88.5,46.75 L88.5,42.25 C88.5,41.5596441 87.9403559,41 87.25,41 Z M21.25,25.5 C22.7679836,25.5019283 23.9980717,26.7320164 24,28.25 L24,32.75 C23.9980717,34.2679836 22.7679836,35.4980717 21.25,35.5 L13.25,35.5 C11.7320164,35.4980717 10.5019283,34.2679836 10.5,32.75 L10.5,28.25 C10.5019283,26.7320164 11.7320164,25.5019283 13.25,25.5 L21.25,25.5 Z M37.75,25.5 C39.2679836,25.5019283 40.4980717,26.7320164 40.5,28.25 L40.5,32.75 C40.4980717,34.2679836 39.2679836,35.4980717 37.75,35.5 L29.75,35.5 C28.2320164,35.4980717 27.0019283,34.2679836 27,32.75 L27,28.25 C27.0019283,26.7320164 28.2320164,25.5019283 29.75,25.5 L37.75,25.5 Z M54.25,25.5 C55.7679836,25.5019283 56.9980717,26.7320164 57,28.25 L57,32.75 C56.9980717,34.2679836 55.7679836,35.4980717 54.25,35.5 L46.25,35.5 C44.7320164,35.4980717 43.5019283,34.2679836 43.5,32.75 L43.5,28.25 C43.5019283,26.7320164 44.7320164,25.5019283 46.25,25.5 L54.25,25.5 Z M70.75,25.5 C72.2679836,25.5019283 73.4980717,26.7320164 73.5,28.25 L73.5,32.75 C73.4980717,34.2679836 72.2679836,35.4980717 70.75,35.5 L62.75,35.5 C61.2320164,35.4980717 60.0019283,34.2679836 60,32.75 L60,28.25 C60.0019283,26.7320164 61.2320164,25.5019283 62.75,25.5 L70.75,25.5 Z M87.25,25.5 C88.7679836,25.5019283 89.9980717,26.7320164 90,28.25 L90,32.75 C89.9980717,34.2679836 88.7679836,35.4980717 87.25,35.5 L79.25,35.5 C77.7320164,35.4980717 76.5019283,34.2679836 76.5,32.75 L76.5,28.25 C76.5019283,26.7320164 77.7320164,25.5019283 79.25,25.5 L87.25,25.5 Z M70.75,27 L62.75,27 C62.0596441,27 61.5,27.5596441 61.5,28.25 L61.5,32.75 C61.5,33.4403559 62.0596441,34 62.75,34 L70.75,34 C71.4403559,34 72,33.4403559 72,32.75 L72,28.25 C72,27.5596441 71.4403559,27 70.75,27 Z M87.25,27 L79.25,27 C78.5596441,27 78,27.5596441 78,28.25 L78,32.75 C78,33.4403559 78.5596441,34 79.25,34 L87.25,34 C87.9403559,34 88.5,33.4403559 88.5,32.75 L88.5,28.25 C88.5,27.5596441 87.9403559,27 87.25,27 Z M54.25,27 L46.25,27 C45.5596441,27 45,27.5596441 45,28.25 L45,32.75 C45,33.4403559 45.5596441,34 46.25,34 L54.25,34 C54.9403559,34 55.5,33.4403559 55.5,32.75 L55.5,28.25 C55.5,27.5596441 54.9403559,27 54.25,27 Z M37.75,27 L29.75,27 C29.0596441,27 28.5,27.5596441 28.5,28.25 L28.5,32.75 C28.5,33.4403559 29.0596441,34 29.75,34 L37.75,34 C38.4403559,34 39,33.4403559 39,32.75 L39,28.25 C39,27.5596441 38.4403559,27 37.75,27 Z M21.25,27 L13.25,27 C12.5596441,27 12,27.5596441 12,28.25 L12,32.75 C12,33.4403559 12.5596441,34 13.25,34 L21.25,34 C21.9403559,34 22.5,33.4403559 22.5,32.75 L22.5,28.25 C22.5,27.5596441 21.9403559,27 21.25,27 Z M85,1.5 C84.335,1.5 83.147,3.95 83.0135,8 L83.0135,8 L86.9865,8 C86.853,3.95 85.665,1.5 85,1.5 Z M71,1.5 C70.335,1.5 69.147,3.95 69.0135,8 L69.0135,8 L72.9865,8 C72.853,3.95 71.665,1.5 71,1.5 Z M57,1.5 C56.335,1.5 55.147,3.95 55.0135,8 L55.0135,8 L58.9865,8 C58.853,3.95 57.665,1.5 57,1.5 Z M43,1.5 C42.335,1.5 41.147,3.95 41.0135,8 L41.0135,8 L44.9865,8 C44.853,3.95 43.665,1.5 43,1.5 Z M29,1.5 C28.335,1.5 27.147,3.95 27.0135,8 L27.0135,8 L30.9865,8 C30.853,3.95 29.665,1.5 29,1.5 Z M15,1.5 C14.335,1.5 13.147,3.95 13.0135,8 L13.0135,8 L16.9865,8 C16.853,3.95 15.665,1.5 15,1.5 Z" id="shadow" fill="#361610"></path>
                </g>
                <g id="porcupine" transform="translate(927.000000, 139.000000) scale(-1, 1) translate(-927.000000, -139.000000) translate(848.000000, 57.000000)">
                    <path d="M60.7132788,56.0911839 C60.7132788,56.0911839 37.5375911,17.966676 29.7120342,25.4912499 C23.6923751,31.3102537 39.5441442,63.0137919 38.2398847,71.64197 C37.0359529,80.1698204 22.287788,133.142821 75.7624267,126.621523" id="highight" fill="#FFFFFF"></path>
                    <path d="M43.4569226,70.4380381 C43.2562673,78.3639227 36.0326763,124.514643 74.9598054,122.608417 L60.8136065,56.0911839 C60.8136065,56.0911839 37.6379188,17.966676 29.8123619,25.4912499 C24.3946687,32.0125473 43.6575779,61.7095324 43.4569226,70.4380381 Z" id="primary" fill="#D56D58"></path>
                    <path d="M47.8713393,0.00802621219 C49.5059474,0.268829164 50.7727042,1.57644914 50.9814965,3.21851109 C51.170382,5.75353531 50.7578744,8.29733235 49.7775647,10.6427574 C50.279203,11.7463615 50.8811689,12.8499657 51.3828071,13.9535699 C52.586739,16.4617612 53.6903431,18.9699525 54.6936197,21.4781438 C56.8036061,26.5541819 58.5143667,31.7870965 59.8103299,37.1292576 C60.5126235,39.8381042 61.1145894,42.5469508 61.6162277,45.2557974 C62.016681,47.4182453 62.3531987,49.5806932 62.6257807,51.7941804 L62.8797291,51.726931 L63.4221254,51.5764395 C64.9270402,51.1751289 66.3316273,50.8741459 67.8365421,50.573163 C70.7558868,49.9914029 73.7025166,49.5561053 76.6653755,49.2689035 C82.5684142,48.7005619 88.5089963,48.6334367 94.42337,49.0682482 C100.268506,49.4801519 106.072057,50.3523619 111.780054,51.6767672 C117.431327,52.9975906 122.993801,54.6730347 128.434444,56.6931498 C128.835755,56.7934774 128.936082,57.194788 128.835755,57.5960987 C128.660754,57.9193168 128.289989,58.0841015 127.932806,57.9974093 C122.429744,56.4159058 116.834162,55.1761662 111.178088,54.2852861 C110.506831,54.1482178 109.830357,54.0385939 109.150356,53.9566643 L108.469241,53.8839755 L110.877105,54.5862691 C111.253334,54.6615148 111.629562,54.7931949 112.005791,54.8966578 L112.38202,54.9875797 L113.886935,55.489218 L116.896764,56.4924945 L122.916423,58.9003581 C123.317734,59.0006858 123.418062,59.4019964 123.317734,59.803307 C123.14973,60.0767799 122.847465,60.2332088 122.53303,60.2183322 L122.414785,60.2046176 L119.404955,59.3016687 L117.900041,58.9003581 C117.523812,58.8251124 117.147583,58.6934323 116.771355,58.5899695 L116.395126,58.4990475 L113.284969,57.796754 L110.275139,57.194788 L107.164982,56.5928221 C107.039572,56.5677402 106.914163,56.5489288 106.788753,56.5332526 L106.036296,56.4517364 L105.660067,56.3921668 L104.155152,56.1915115 C102.399418,55.9406924 100.713356,55.7595452 98.9808465,55.6480701 L97.9348378,55.5895456 L96.8312336,55.5895456 C101.792149,56.2645539 106.690612,57.3381894 111.479071,58.8000305 C117.428461,60.5733877 123.151973,63.0311312 128.534772,66.1239491 C128.740595,66.1080549 128.947195,66.1424882 129.136738,66.2242768 C136.533132,68.4274837 143.801372,71.0400307 150.907838,74.0498336 C151.273614,74.2369049 151.445006,74.6653856 151.309149,75.0531102 C151.181818,75.3791954 150.837366,75.5567846 150.505239,75.4839017 L150.4062,75.4544208 L148.964191,74.9459602 C144.645386,73.430812 140.383468,72.0131823 135.959018,70.8393488 C136.520853,71.2406594 137.082688,71.64197 137.593155,72.0432806 L137.965571,72.3442635 L139.470486,73.5481954 C139.959619,73.9244133 140.428473,74.3262874 140.875073,74.7521272 C141.87835,75.6550761 142.781298,76.3573696 143.684247,77.2603185 C145.490145,78.9658886 147.296043,80.7717863 148.901285,82.5776841 C152.161008,86.2666055 155.145421,90.1899352 157.830446,94.3160194 C158.131429,94.71733 158.031102,95.1186406 157.529463,95.7206065 C157.225691,95.8948102 156.848118,95.8427915 156.602784,95.6057582 L156.526187,95.5199512 L155.82011,94.5412239 C153.20955,90.9687587 150.361836,87.575207 147.296043,84.3835818 C145.590473,82.6780117 143.884903,80.9724416 142.079005,79.4675269 C141.176056,78.6649056 140.172779,77.8622844 139.269831,77.1599909 C138.821117,76.7679816 138.352286,76.3996144 137.865243,76.0563867 C137.363605,75.7554037 136.861967,75.3540931 136.360329,75.0531102 C133.33514,72.8914857 130.150496,70.9631024 126.834,69.2844161 L125.926253,68.8327957 L125.825925,68.8327957 C124.922976,68.6321404 123.9197,68.4314851 123.016751,68.2308298 C121.210853,67.9298468 119.404955,67.5285362 117.599058,67.2275533 C119.2043,67.9298468 120.709215,68.6321404 122.314457,69.4347616 C124.899392,70.7713299 127.411155,72.2448976 129.839031,73.8491783 C132.223025,75.5121855 134.501499,77.3215619 136.661312,79.2668716 C138.756944,81.2962761 140.701772,83.4758236 142.480315,85.788169 C142.61004,85.9302353 142.673219,86.1207712 142.654076,86.3121996 C142.634933,86.5036281 142.535275,86.6778803 142.379988,86.7914455 C142.098248,86.9893873 141.724254,86.9745994 141.460331,86.7673145 L141.376711,86.6911178 L140.822076,86.0619624 C139.141753,84.1896291 137.314318,82.4541113 135.357052,80.872114 C133.178336,79.119058 130.863484,77.5422748 128.434444,76.1567143 C126.02658,74.8524549 123.518389,73.648523 120.90987,72.5449188 C118.646366,71.5954261 116.337438,70.7586671 113.991586,70.0376546 L113.026794,69.7480262 L113.146794,69.7840262 L113.612033,69.9748602 C119.948155,72.6152262 125.884617,76.1273742 131.249412,80.4095398 L131.945912,80.9724416 C132.668271,81.5342765 133.39063,82.160321 134.112989,82.7992075 L134.654759,83.2799776 L135.959018,84.4839095 L137.16295,85.6878413 C138.86852,87.3934114 140.473762,89.0989815 141.978677,90.9048792 C145.043638,94.5101672 147.795879,98.3700174 150.205545,102.442559 C150.311998,102.807078 150.194088,103.200111 149.904562,103.445836 C149.599529,103.632414 149.210681,103.577153 148.969108,103.326268 L148.901285,103.24518 L148.249135,102.29755 C145.837932,98.8371818 143.207352,95.5344701 140.373435,92.409794 C138.997513,90.9478768 137.621591,89.5596697 136.182488,88.2451727 L135.45738,87.5940667 L134.855414,86.9921008 L134.15312,86.3901349 L132.848861,85.2865307 L130.140014,83.17965 C122.794901,77.7327702 114.49043,73.7166733 105.660067,71.340987 C105.580032,71.2638189 105.469413,71.2269461 105.359084,71.2406594 C106.663344,71.9429529 107.867275,72.7455742 109.071207,73.5481954 C111.132339,74.8720527 113.079503,76.3646346 114.892749,78.0103544 L115.492177,78.564578 L116.395126,78.8655609 C119.003645,79.6681822 121.511836,80.7717863 124.020027,81.7750629 C126.56007,82.8022031 129.038915,83.9746296 131.444274,85.2865307 C131.787803,85.4936953 131.918021,85.9277543 131.745257,86.2898072 C131.564089,86.5436681 131.255779,86.6679351 130.954637,86.6178376 L130.842308,86.5907902 L129.767369,86.129517 C127.61749,85.2292006 125.467612,84.4552444 123.317734,83.6812883 C122.777332,83.471715 122.227587,83.2873892 121.670283,83.1288789 L121.110526,82.9789947 L121.612164,83.2799776 C122.035892,83.5122607 122.438708,83.7808045 122.816096,84.0825989 C129.304084,88.4000459 135.382621,93.303175 140.975401,98.7304361 C141.118976,98.8576355 141.201166,99.0402581 141.201166,99.2320744 C141.201166,99.4238906 141.118976,99.6065132 140.975401,99.7337126 C140.716805,99.9596142 140.343764,99.9822043 140.062279,99.8014831 L139.972124,99.7337126 L138.983924,98.8768389 C134.019982,94.6201321 128.713143,90.7792238 123.117079,87.3934114 C123.27049,87.6693341 123.437922,87.9372249 123.618717,88.1960326 C124.396256,89.389161 125.099871,90.6288636 125.725598,91.9081557 C125.912887,92.2321607 126.080405,92.5671981 126.227236,92.9114323 C131.981154,97.0001646 137.35381,101.600502 142.27966,106.656321 C142.556707,106.933368 142.556707,107.38255 142.27966,107.659597 C142.030318,107.90894 141.641546,107.933874 141.364318,107.7344 L141.276384,107.659597 L140.225066,106.717765 C136.352176,103.285199 132.281255,100.082153 128.033134,97.1251937 C128.334116,98.0281425 128.635099,98.8307638 128.936082,99.633385 C129.024322,99.8040814 129.030257,100.005617 128.952216,100.18121 C128.874174,100.356803 128.720604,100.487447 128.534772,100.536334 C128.211738,100.635166 127.867572,100.506444 127.686053,100.231846 L127.631823,100.135023 L127.209644,99.1718778 C126.644599,97.8876838 126.066712,96.6034899 125.424615,95.3192959 C124.461469,94.677199 123.434114,94.035102 122.445285,93.4443728 L121.712491,93.0117599 L119.003645,91.5068451 C118.903317,91.5068451 118.80299,91.4065175 118.702662,91.4065175 C119.505283,92.3094664 120.307904,93.2124152 121.110526,94.2156918 C121.913147,95.1186406 122.515113,96.0215895 123.217406,96.9245384 C123.819372,97.9278149 124.521666,98.8307638 125.123632,99.7337126 C126.427891,101.53961 127.531495,103.546163 128.635099,105.452389 C128.807864,105.814442 128.677646,106.248501 128.334116,106.455665 C128.187838,106.549043 128.010411,106.580365 127.841002,106.542719 C127.705474,106.512602 127.583993,106.440325 127.493225,106.33759 L127.431168,106.25501 L126.816059,105.358224 C125.778343,103.872415 124.678147,102.431034 123.518389,101.037972 C123.000436,100.333455 122.446436,99.65635 121.858649,99.0093469 L121.761794,98.9060262 L121.848794,98.9990262 C121.890441,99.072704 121.915743,99.1442695 121.928561,99.2187853 L121.938257,99.332402 C121.938257,99.5242183 121.856066,99.7068409 121.712491,99.8340403 C121.475527,100.083852 121.10601,100.143416 120.806267,99.9924974 L120.709215,99.9343679 L119.757418,99.2469919 C117.842711,97.8745798 115.864823,96.5232278 113.886935,95.3192959 C115.090866,96.2222448 116.294798,97.2255213 117.398402,98.1284702 C121.208944,101.186547 124.674073,104.651677 127.732151,108.462218 C127.861875,108.604285 127.925054,108.794821 127.905911,108.986249 C127.886768,109.177678 127.787111,109.35193 127.631823,109.465495 C127.350083,109.663437 126.976089,109.648649 126.712166,109.441364 L126.628546,109.365167 L125.966905,108.693627 C122.857845,105.581997 119.450349,102.782475 115.79316,100.335679 C114.890211,99.633385 113.886935,99.0314191 112.983986,98.4294532 C114.875879,99.8053752 116.694061,101.255007 118.501714,102.77835 L119.404955,103.546163 L121.612164,105.452389 L123.819372,107.458942 L125.926253,109.565823 L126.929529,110.569099 L127.431168,111.070737 L127.932806,111.672703 L129.939359,113.879912 C130.524604,114.548763 131.040176,115.217614 131.544137,115.828405 L131.845584,116.187448 L133.651482,118.595311 L134.955742,120.501537 C135.087642,120.642618 135.152267,120.833744 135.133049,121.025922 C135.113831,121.2181 135.01264,121.392645 134.855414,121.504813 C134.573674,121.702755 134.19968,121.687967 133.935757,121.480682 L133.852137,121.404486 L132.04624,119.197277 C131.820502,118.896294 131.594765,118.651746 131.369028,118.37898 L131.143291,118.093673 L130.140014,116.990069 C129.613294,116.463349 129.143008,115.936628 128.644505,115.409908 L128.133461,114.883188 L126.02658,112.776307 L125.524942,112.274669 L125.023304,111.773031 L123.9197,110.769754 C123.744126,110.619263 123.562283,110.462501 123.377303,110.302604 L122.254888,109.33068 L121.712491,108.863529 L119.505283,106.957304 L117.197747,105.151406 C114.141175,102.8066 110.959442,100.629625 107.66662,98.6301085 C104.355808,96.6235554 100.944667,94.71733 97.5335272,93.0117599 C96.2292677,92.3094664 94.8246806,91.6071728 93.4200935,91.0052069 C95.8279571,92.6104493 98.2358208,94.3160194 100.643684,96.0215895 C104.475328,98.7956674 108.145143,101.786086 111.635286,104.978148 L112.582675,105.853699 L115.391849,108.562546 C116.069061,109.239758 116.746273,109.973404 117.423484,110.678832 L118.100696,111.37172 L119.404955,112.776307 C119.752252,113.133597 120.084024,113.505552 120.399373,113.891135 L120.709215,114.281222 L123.217406,117.190724 C123.437342,117.503768 123.394648,117.930707 123.117079,118.194001 C122.989879,118.337576 122.807257,118.419766 122.61544,118.419766 C122.461987,118.419766 122.314418,118.367164 122.196403,118.272613 L122.113802,118.194001 L119.404955,115.485154 L118.100696,114.180895 L116.696109,112.876635 C115.985331,112.166049 115.24293,111.487999 114.471198,110.84453 L113.886935,110.368444 L110.977433,107.96058 C107.566292,105.452389 104.155152,102.944198 100.643684,100.736989 C101.847616,101.840593 102.95122,102.944198 104.155152,104.148129 C106.689575,106.818061 109.067944,109.631905 111.278416,112.575652 C112.683003,114.481878 113.886935,116.488431 115.090866,118.494984 C117.097419,120.601864 119.103972,122.608417 121.010198,124.715298 C123.719044,127.6248 126.327563,130.734957 128.735427,133.845114 C128.865152,133.987181 128.92833,134.177717 128.909187,134.369145 C128.890045,134.560574 128.790387,134.734826 128.635099,134.848391 C128.35336,135.046333 127.979365,135.031545 127.715443,134.82426 L127.631823,134.748063 L126.648925,133.628391 C124.344525,131.03594 121.963311,128.577913 119.505283,126.119885 C119.096025,125.660363 118.660546,125.224884 118.201024,124.815626 C119.171932,127.276837 120.009215,129.788686 120.709215,132.3402 C120.820034,132.728066 120.595443,133.13233 120.207577,133.243149 C119.852033,133.344732 119.48271,133.164479 119.338267,132.834976 L119.304628,132.74151 L118.994087,131.826962 C117.934353,128.787441 116.629056,125.838608 115.090866,123.009728 C114.716272,122.208065 114.280218,121.436584 113.786607,120.702192 C112.78333,119.799243 111.880381,118.996622 110.877105,118.093673 C108.368914,115.986792 105.860722,113.980239 103.352531,111.973686 C106.542834,115.045368 109.557446,118.29445 112.38202,121.705468 C112.601955,122.018513 112.559261,122.445451 112.281692,122.708745 C112.154493,122.85232 111.97187,122.934511 111.780054,122.934511 C111.626601,122.934511 111.479032,122.881909 111.361016,122.787357 L111.278416,122.708745 L110.182617,121.611292 C106.511657,117.971903 102.658234,114.52081 98.6371314,111.271393 C98.1354931,110.769754 97.5335272,110.368444 96.9315613,109.866806 C101.947944,114.582205 106.663344,119.297605 111.278416,124.313987 C116.148849,129.637006 120.672879,135.26691 124.822649,141.169033 C125.016208,141.506558 124.930481,141.935194 124.621993,142.17231 C124.480912,142.30421 124.289786,142.368835 124.097608,142.349617 C123.943866,142.334243 123.801409,142.266405 123.693145,142.159386 L123.618717,142.071982 L122.657385,140.88375 C118.469944,135.752822 114.001291,130.857449 109.271863,126.220213 C108.067931,125.016281 106.763671,123.812349 105.459412,122.608417 C105.536141,122.779941 105.495882,122.981237 105.359084,123.110056 C105.158429,123.411039 104.957773,123.411039 104.656791,123.411039 C106.563016,124.915953 108.368914,126.521196 110.174811,128.126438 C110.318386,128.253638 110.400577,128.43626 110.400577,128.628077 C110.400577,128.819893 110.318386,129.002515 110.174811,129.129715 C109.937847,129.379527 109.56833,129.43909 109.268587,129.288172 L109.171535,129.230042 L107.720897,128.095036 C103.351528,124.715298 98.8277539,121.554977 94.2227147,118.394656 C89.2063321,114.983516 84.0896218,111.572376 78.8725839,108.161235 C78.7722562,108.060908 78.5716009,107.96058 78.4712733,107.860252 C78.6719286,108.060908 78.8725839,108.361891 79.0732392,108.562546 C79.9009423,109.239758 80.7286454,109.860535 81.5563486,110.50953 L82.3840517,111.171065 L86.0961748,113.980239 L89.808298,116.689086 C90.7864926,117.366298 91.7082529,118.043509 92.6582304,118.720721 L93.6207488,119.397932 L95.5269742,120.702192 C95.9784486,121.003175 96.4863573,121.360592 96.9660489,121.689792 L97.4331996,122.006451 L101.24565,124.61497 C102.289058,125.33733 103.332466,125.995479 104.375873,126.640786 L105.158429,127.123162 L107.064654,128.327094 C107.591374,128.628077 108.06166,128.929059 108.560163,129.230042 L109.071207,129.531025 L113.084313,131.938889 L113.185508,131.999809 C113.312629,132.09142 113.40717,132.222961 113.452818,132.375123 C113.509879,132.565326 113.485426,132.770681 113.385296,132.942166 C113.111675,133.215786 112.755139,133.406492 112.466443,133.288149 L112.38202,133.243149 L108.168258,131.136268 C107.627378,130.916335 107.096448,130.672919 106.576975,130.406736 L106.061378,130.132991 L103.954497,129.029387 C102.784008,128.444142 101.613518,127.858898 100.501089,127.215593 L99.8410632,126.822179 L95.7276295,124.514643 C95.5520561,124.414315 95.3827532,124.313987 95.2165855,124.21366 L94.2321204,123.611694 L93.7210764,123.310711 L93.1191105,122.9094 C93.3197658,123.110056 93.6207488,123.310711 93.8214041,123.511366 C95.6273018,124.915953 97.5335272,126.32054 99.4397526,127.6248 C101.07366,128.656742 102.707568,129.688683 104.467835,130.657445 L105.359084,131.136268 L105.447418,131.198168 C105.723786,131.421757 105.817126,131.810405 105.660067,132.139544 C105.456254,132.425138 105.091525,132.546714 104.757118,132.440527 C102.517905,131.547014 100.339495,130.50808 98.2358208,129.33037 C96.1289401,128.226766 94.122387,126.922506 92.115834,125.618247 C90.1092809,124.313987 88.2030555,122.9094 86.2968302,121.404486 C84.3906048,119.899571 82.584707,118.394656 80.7788093,116.789414 C78.939469,115.117286 77.1001287,113.445158 75.3188484,111.714971 L74.2575119,110.669427 L74.3484338,110.819918 C74.4518967,110.97041 74.5835767,111.120901 74.6588225,111.271393 C75.5617714,112.274669 76.5650479,113.378273 77.5683244,114.38155 C80.0765157,116.889741 82.6850347,119.297605 85.3938813,121.605141 C86.6981408,122.809073 88.1027279,123.912677 89.507315,125.016281 C90.2096086,125.618247 90.9119022,126.119885 91.6141957,126.621523 C92.3164893,127.223489 93.0187829,127.725128 93.7210764,128.226766 C99.1460754,132.148183 104.851027,135.665874 110.789842,138.75173 L111.980709,139.363135 L112.069043,139.425036 C112.345411,139.648625 112.438751,140.037273 112.281692,140.366412 C112.077681,140.651738 111.713147,140.773249 111.378743,140.667395 C104.738521,137.790875 98.3317293,134.402991 92.2161616,130.534302 C91.4135404,130.032664 90.6109192,129.531025 89.9086256,129.029387 C89.5612492,128.851152 89.2260869,128.650054 88.9053491,128.427421 C89.6277082,129.14978 90.3500673,129.80793 91.1237942,130.504605 L91.7145234,131.03594 L93.6207488,132.641183 C93.7712403,132.766592 93.9280022,132.892002 94.0878994,133.017411 L95.0598235,133.769869 L95.5269742,134.146097 C95.8244276,134.286526 96.1010452,134.4666 96.3494,134.681122 L96.5302507,134.848391 L97.5335272,135.550685 C98.2358208,135.951995 98.8377867,136.553961 99.5400803,136.955272 C99.6587885,137.140407 99.8350404,137.281409 100.041719,137.356582 C100.944667,137.757893 101.847616,138.159203 102.750565,138.460186 C103.058222,138.649191 103.217745,139.008119 103.151876,139.363135 C104.355808,140.040347 105.616174,140.717559 106.848323,141.39477 L108.067931,142.071982 L108.156265,142.133882 C108.432632,142.357471 108.525972,142.746119 108.368914,143.075258 C108.1651,143.360852 107.800371,143.482428 107.465965,143.376241 C104.376494,141.99895 101.362413,140.45842 98.4364761,138.761169 C98.2153124,138.605937 97.9802041,138.47159 97.7341825,138.359859 C94.4134233,137.178101 91.1640347,135.804648 88.0024002,134.246425 C87.6010896,134.005639 87.1355693,133.764852 86.6572071,133.524066 L86.2968302,133.343476 L84.9925707,132.641183 C88.9498978,135.614138 93.1830062,138.201037 97.6338549,140.366412 C103.597589,143.153848 109.852016,145.268504 116.281462,146.672017 L117.298075,146.887709 L117.397685,146.916459 C117.75102,147.044244 117.968852,147.411212 117.900041,147.790658 C117.820779,148.163857 117.477883,148.421028 117.097419,148.392624 C110.040874,147.406023 103.132984,145.552686 96.5302507,142.874603 C89.8571504,140.148308 83.5806706,136.537644 77.8693074,132.139544 C76.9076582,131.415038 75.967203,130.663135 75.049087,129.884796 L85.193226,157.723096 C85.2511021,157.783122 85.286312,157.860352 85.2945145,157.94176 L85.2935536,158.024079 L85.2935536,158.224734 C85.2779422,158.38462 85.235461,158.540326 85.1682599,158.685404 L85.0928983,158.8267 L84.9925707,158.927028 C84.892243,158.927028 84.892243,159.027355 84.5912601,159.127683 C83.5879835,160.130959 80.7788093,160.833253 77.3676691,160.833253 C73.1539077,160.833253 69.6424399,159.629321 69.6424399,158.224734 C69.6424399,156.820147 73.05358,155.616215 77.3676691,155.616215 C78.5771301,155.589335 79.7856055,155.689125 80.973381,155.913663 L81.4811028,156.017526 L67.7305982,128.321402 C67.4616572,128.325196 67.195728,128.327094 66.9335933,128.327094 C62.3766652,128.327094 58.2726807,127.804466 54.628899,126.766471 L64.124419,160.331615 L64.124419,160.732925 C64.1036037,160.946106 64.0350201,161.151857 63.9237637,161.334891 C63.823436,161.435219 63.7231084,161.635874 63.5224531,161.635874 C62.4188489,162.639151 59.6096746,163.341444 56.2988621,163.341444 C52.0851007,163.341444 48.5736329,162.137512 48.5736329,160.732925 C48.5736329,159.328338 51.9847731,158.124406 56.2988621,158.124406 C57.5665318,158.093687 58.833533,158.192967 60.0800443,158.420403 L60.6129512,158.525717 L46.0984905,122.844146 C44.6224997,121.833532 43.273438,120.684451 42.0523355,119.397932 C32.574905,109.288673 33.231586,93.0865127 34.821175,81.9503571 C32.3058533,80.0267493 29.9796122,77.8675908 27.8731794,75.5025486 L27.3041706,74.8524549 L25.3979452,72.6452465 L23.6923751,70.3377105 L23.2910645,69.7357446 L22.8897539,69.1337787 L22.0871327,67.9298468 L21.2845114,66.725915 L20.5822179,65.5219832 L19.8799243,64.3180514 C19.676643,64.0341097 19.4935692,63.736404 19.3319931,63.4271462 L19.1776307,63.1141195 L17.8733713,60.6059282 C17.4720607,59.803307 17.07075,58.9003581 16.6694394,58.0977369 C16.2083028,57.2917296 15.8059467,56.4534878 15.4655076,55.5895456 C14.6628864,53.8839755 14.0609205,52.1784054 13.3586269,50.4728353 C12.756661,48.7672652 12.1546951,47.0616952 11.5527292,45.2557974 C9.29839262,38.2952216 7.5218082,31.1888839 6.23536359,23.9863351 C5.71939281,20.8905104 5.20342203,17.7946857 4.81381143,14.698861 L4.63012116,13.1509487 L4.63012116,12.8499657 C3.25056423,12.4593644 2.02460529,11.6537342 1.11865332,10.5424297 C0.0875034345,9.12556552 -0.244647495,7.31718824 0.215704453,5.62637474 C0.559299217,4.51822182 1.18102437,3.51655351 2.02160219,2.71687283 C2.93472432,1.53270938 4.33884895,0.830647064 5.83405298,0.810647431 C7.46866104,1.07145038 8.73541789,2.37907036 8.94421021,4.02113231 C9.15263116,6.63178519 8.70425121,9.25308335 7.63995073,11.6460339 C7.66503264,11.7212796 7.68384407,11.8027958 7.69952027,11.8874473 L7.78103649,12.407897 L7.84060603,12.6493104 C8.5428996,16.1607782 9.34552081,19.6722461 10.2484697,23.0833862 C11.9554687,29.9267209 14.1687745,36.6337081 16.8700947,43.1489167 C17.4720607,44.7541592 18.2746819,46.3594016 18.9769754,47.964644 C19.7795967,49.4695588 20.4818902,51.0748012 21.3848391,52.579716 C21.7861497,53.3823373 22.287788,54.1849585 22.6890986,54.887252 C22.9900815,55.4139722 23.3474988,55.9971267 23.6766989,56.552064 L23.9933581,57.0944604 L25.3979452,59.3016687 C25.5477891,59.5695491 25.7175991,59.8255893 25.90587,60.0676389 L26.1002388,60.3049453 L26.8025323,61.3082218 L27.5048259,62.3114983 L28.3074471,63.3147748 L29.1100683,64.3180514 L29.5113789,64.8196896 L29.9126895,65.3213279 L31.517932,67.2275533 L33.3238297,69.033451 C34.3542747,70.0520263 35.4325032,71.0195246 36.55456,71.9328125 C36.5861053,71.7572103 36.6127601,71.5944898 36.6346422,71.4413147 C37.0477561,68.7147632 35.4196015,62.9263089 33.4872578,56.7656234 L33.209327,55.8832837 C33.1627228,55.7359019 33.1159931,55.5883816 33.0691613,55.4407593 L32.7871326,54.5540904 L32.5037789,53.6667135 C32.4092319,53.3709969 32.3146516,53.0754527 32.2202255,52.7803713 C32.1730125,52.634011 32.1258273,52.487734 32.0786824,52.3415522 L31.7963979,51.4656998 C29.0469396,42.9271306 26.5223054,34.7972814 26.7515398,29.4738178 C26.0412485,29.2249818 25.3490055,28.8427748 24.7162156,28.3274927 C22.1382487,26.2282487 21.523264,22.7152674 23.3426087,20.4810294 C25.1619535,18.2467914 28.726679,18.1373572 31.3046459,20.2366012 C32.3922448,21.1222353 33.1304627,22.2594931 33.483907,23.4461999 C37.737724,24.5357603 43.5700769,30.0878108 50.9814965,39.9384318 C52.4230876,41.9005975 53.8007467,43.8627632 55.0570594,45.6973415 C54.8584673,43.2425633 54.5696523,40.7821405 54.1919814,38.2328618 C53.4356326,33.0143756 52.3295377,27.8525995 50.8811689,22.7824033 C50.1788753,20.274212 49.3762541,17.7660207 48.4733052,15.2578294 C48.0719946,14.1542252 47.670684,13.1509487 47.2693734,12.1476721 C45.6344501,11.9186122 44.1561082,11.0532413 43.1559397,9.73980849 C42.1247898,8.32294431 41.7926388,6.51456702 42.2529908,4.82375352 C42.5965855,3.7156006 43.2183107,2.71393229 44.0588885,1.91425161 C44.9720107,0.730088157 46.3761353,0.028025845 47.8713393,0.00802621219 Z M68.9401463,111.37172 C68.9401463,111.472048 69.040474,111.472048 69.040474,111.572376 C70.2603981,113.678187 71.6353394,115.690296 73.1539077,117.592035 C74.6579226,119.515704 76.3010161,121.32646 78.0699627,123.009728 C79.617875,124.471645 81.2394975,125.859852 82.87165,127.174349 L83.6883112,127.825455 L85.193226,128.929059 L85.8955195,129.531025 L86.2968302,129.832008 C82.5632503,126.549909 79.0445265,123.031185 75.7624267,119.297605 C74.3865046,117.663697 73.0105825,116.02979 71.7610206,114.395882 L71.1473547,113.578929 L68.9401463,111.37172 Z M33.5799434,26.2588565 L33.567552,26.3161602 C33.4034959,26.953011 33.1091502,27.5539027 32.6782528,28.0830644 C31.8632714,29.0838985 30.6980584,29.658365 29.428198,29.7989248 C29.3223791,33.7620726 31.1247488,40.304551 33.1027593,46.7505634 L33.3498271,47.5524729 L33.5979672,48.352238 L33.8464365,49.148711 C34.177618,50.2079703 34.507696,51.255391 34.8287445,52.2787331 C37.6379188,60.7062559 40.0457824,68.1305021 39.4438165,71.9429529 C39.3723369,72.4433104 39.2499307,73.0964475 39.1128812,73.8660809 C39.5352677,74.163707 39.9630605,74.453491 40.3959473,74.7357214 L41.049059,75.1534378 L41.2517283,75.2873326 C42.178244,75.9357206 42.8317312,76.9092489 43.0783155,78.0188782 C43.342513,79.2077667 43.117394,80.4529556 42.4536461,81.4740799 C41.8396457,82.5111506 40.8325271,83.256009 39.6611203,83.5394139 C38.9339575,83.7153404 38.1818176,83.7041754 37.47189,83.516904 C36.0574737,94.0175789 35.7314836,108.452315 43.8219733,117.523282 L44.0217944,117.742026 L43.7579056,117.090396 C42.9795763,115.131154 43.8826568,112.920038 45.7785629,112.053313 L45.965114,111.973686 C47.9875582,111.17025 50.2783874,112.15845 51.0818242,114.180895 C51.0818242,114.25614 51.1382585,114.38782 51.1664756,114.491283 L51.1821518,114.582205 L53.8497685,124.015796 C58.3735975,125.605336 63.7564149,126.257195 69.9537715,125.956555 L70.6457164,125.91923 L69.9434228,125.216936 C67.6712075,122.955681 65.5382981,120.559138 63.5563085,118.040559 L62.8201595,117.090396 L61.3152447,114.983516 C59.5480435,115.096533 57.9162946,114.035896 57.3021386,112.374997 C57.1012708,111.584943 57.1012708,110.757187 57.3021386,109.967133 C55.4015736,110.411313 53.4790707,109.318982 52.8877219,107.458942 C52.5864949,106.650011 52.5864949,105.759682 52.8877219,104.950751 C52.2946348,104.545231 51.8672871,103.939822 51.6837901,103.24518 C51.2533104,101.997001 51.5045358,100.620738 52.3340454,99.6076415 L52.4864113,99.4327297 L52.1854284,98.7304361 L52.0851007,98.4294532 L51.9847731,98.0281425 C51.8696159,97.670707 51.802148,97.2996334 51.7841178,96.9245384 C50.0780098,96.9877992 48.5307649,95.9291579 47.971667,94.3160194 C47.5331083,93.0414973 47.8001242,91.6301274 48.6739605,90.6038963 C48.5902461,90.2182237 48.5762937,89.8213248 48.6321033,89.4319102 L48.6739605,89.1993091 L47.971667,88.7979985 L47.5703564,88.4970156 C46.489775,87.8334831 45.8844847,86.6098792 46.0127765,85.3483434 C46.1410683,84.0868076 46.9802882,83.0101031 48.1723223,82.5776841 C47.677793,81.0343186 48.3821343,79.3712521 49.8102522,78.6442488 L49.97822,78.564578 L49.7937827,78.4841271 C48.8274076,78.0266368 48.1425225,77.1204985 47.971667,76.0563867 C47.8238782,75.1914214 48.0264818,74.3032043 48.5347361,73.5878833 C49.000636,72.9321725 49.6882342,72.471189 50.4661994,72.2871887 L50.6805136,72.2439359 L50.9814965,72.2439359 C49.6852414,72.1431405 48.5769409,71.2723329 48.1723223,70.0367275 C47.6335296,68.3532163 48.4867525,66.5515604 50.1031283,65.8894849 L50.279203,65.8229661 L50.3795306,65.8229661 C50.5927021,65.7142614 50.8172051,65.6300152 51.0487484,65.5716579 L51.2824795,65.5219832 L52.0851007,65.3213279 C51.3338207,64.9532698 50.7572969,64.3046805 50.4798583,63.5154301 C50.1391595,62.6922581 50.1501166,61.7655287 50.5101828,60.950642 C50.8425516,60.1984389 51.4456651,59.6020077 52.1956101,59.2768989 L52.3860837,59.2013411 L52.4864113,59.2013411 C52.8074598,59.121079 53.0642986,59.0408168 53.3082954,58.9605547 L53.4896878,58.9003581 L54.3926367,58.5993752 C54.9807634,58.385835 55.5845313,58.2181217 56.1985345,58.0977369 C56.4995174,57.9974093 56.8005004,57.9974093 57.1014833,57.8970816 C56.5089987,56.6052198 56.7898542,55.0805755 57.8037769,54.0846308 C51.9962142,45.0400659 40.4065265,28.6774992 33.5799434,26.2588565 Z M94.6240253,81.8753905 C95.4438894,82.1668297 96.2476491,82.5017296 97.031889,82.878667 C101.563814,84.8597441 105.925919,87.2085701 110.074484,89.9016027 C113.91349,92.3422901 117.545654,95.0929822 120.934729,98.1258699 L121.569794,98.7010262 L121.411508,98.5297808 C120.865341,97.8500494 120.284239,97.1993372 119.670596,96.5802562 L119.2043,96.1219171 C116.177631,93.0097564 112.924822,90.1258232 109.472518,87.493739 C109.322026,87.3683295 109.165264,87.2491904 109.005367,87.1331865 L108.033443,86.4497044 L107.566292,86.0891519 C107.039572,85.8634147 106.456418,85.6376775 105.90148,85.4119403 L105.359084,85.186203 L102.449582,84.1829265 L99.5400803,83.2799776 C97.8345102,82.7783394 96.2292677,82.2767011 94.6240253,81.8753905 Z M106.161705,78.9658886 C108.157457,80.4617061 110.066749,82.0695313 111.880381,83.7816159 C112.030873,83.8568616 112.237799,83.9885417 112.416507,84.0920046 L112.582675,84.1829265 L115.391849,85.6878413 L118.100696,87.1927561 L119.404955,87.9953773 C119.747253,88.1683728 120.078234,88.3626409 120.395968,88.5769942 L120.709215,88.7979985 L122.314457,89.8012751 C122.21413,89.7009474 122.21413,89.6006197 122.113802,89.5002921 C121.792754,89.0187194 121.471705,88.6013563 121.150657,88.1968352 L120.90987,87.8950497 L120.307904,87.0924284 L119.605611,86.3901349 C118.870393,85.5746559 118.101826,84.7900361 117.301901,84.0382681 L116.696109,83.480633 L114.187918,82.2767011 C113.886935,82.1262096 113.529517,81.9757182 113.200317,81.8252267 L112.883658,81.6747352 L111.579399,81.0727693 C110.174811,80.4708034 108.770224,79.8688375 107.265309,79.2668716 C106.863999,79.1665439 106.462688,79.0662163 106.161705,78.9658886 Z M42.2529908,45.0551421 C43.8598643,45.0551421 45.1624927,46.3577705 45.1624927,47.964644 C45.1624927,49.5715176 43.8598643,50.8741459 42.2529908,50.8741459 C40.6461172,50.8741459 39.3434889,49.5715176 39.3434889,47.964644 C39.3434889,46.3577705 40.6461172,45.0551421 42.2529908,45.0551421 Z" id="shadow" fill="#202122"></path>
                </g>
                <g id="book-stack" transform="translate(123.000000, 132.000000)">
                    <path d="M1.0076964,42.7199955 L36.5117587,57.5181818 L100.826049,57.5181818 C100.826049,57.5181818 110.205217,63.5727273 100.826049,72.9909091 L36.5117587,72.9909091 L1.00491079,58.1909091 C10.2902865,48.8669091 1.1906183,42.8396091 1.0076964,42.7199955 Z M8.37425659,21.8636364 L31.1522345,36.6636364 L95.4632566,36.6616364 C95.4665251,36.6636364 104.659047,42.5976964 95.7423008,51.85483 L95.4665251,52.1363636 L31.1522345,52.1363636 L8.37425659,37.3363636 C14.1232811,29.6391121 8.90904957,22.5534638 8.41156773,21.9109854 L8.38381188,21.8755582 C8.37751752,21.8676385 8.37425659,21.8636364 8.37425659,21.8636364 Z M7.03437553,1.00909091 L29.8123535,15.8090909 L94.1233755,15.8070909 C94.126644,15.8090909 103.319166,21.7431509 94.4024197,31.0002845 L94.126644,31.2818182 L29.8123535,31.2818182 L7.03437553,16.4818182 C13.0638403,8.40909091 7.03437553,1.00909091 7.03437553,1.00909091 Z" id="highlight" fill="#FFFFFF"></path>
                    <path d="M16.6559108,42.7176364 L31.1522345,52.1363636 L84.7469108,52.1356364 L100.826049,57.5181818 L36.5117587,57.5181818 L1.00491079,42.7181818 L16.6559108,42.7176364 Z M15.3172566,21.8630909 L29.8123535,31.2818182 L84.0162566,31.2810909 L95.4665251,36.6636364 L31.1522345,36.6636364 L8.37425659,21.8636364 L15.3172566,21.8630909 Z M62.6394393,1.00909091 L94.126644,15.8090909 L29.8123535,15.8090909 L7.03437553,1.00909091 L62.6394393,1.00909091 Z" id="primary" fill="#D56D58"></path>
                    <path d="M40.8999232,58.5268159 C40.1346033,58.5300842 39.5423286,58.5326232 39.1500182,58.5343079 C40.2378482,59.7610495 41.389452,61.569922 41.6374737,63.8889091 C41.9222827,66.5511497 40.9608009,69.2647329 38.773755,71.9815998 L100.405327,71.9818182 C101.87389,70.452389 102.894479,68.9486103 103.461289,67.482501 C102.011331,60.112042 68.224175,58.7331649 50.0028493,58.5273794 L40.8999232,58.5268159 Z M4.88650991,45.4286264 C5.491136,46.4478497 5.97922696,47.6733401 6.13062576,49.0889091 C6.43745852,51.9587636 5.29520993,54.8905091 2.73201747,57.8182182 L36.2669252,71.7959132 C38.7660694,69.1311632 39.9000429,66.5467357 39.6390411,64.1041818 C39.2869286,60.8181392 36.5105137,58.7430421 36.0368063,58.4133153 L4.88650991,45.4286264 Z M16.3582007,43.7259994 L6.04755314,43.7272727 L36.7127409,56.5090909 L94.634459,56.5090909 L84.5852007,53.1449994 L31.1522345,53.1454576 L31.092756,53.1436865 L31.0685133,53.1415446 L31.054775,53.1407132 C31.0225921,53.1375714 30.9907437,53.1328874 30.9593223,53.1267187 C30.945786,53.1240208 30.9324891,53.1211249 30.919259,53.117961 C30.8941786,53.1120051 30.8690126,53.1049347 30.8442118,53.0969121 L30.8038301,53.0829222 L30.7501242,53.0611612 L30.6873853,53.031237 L30.6521729,53.0116463 L30.606233,52.984 L16.3582007,43.7259994 Z M57.126583,37.6721348 L32.9840415,37.672341 C34.375403,40.2274027 36.2895872,45.4451163 33.0217598,51.1265538 L95.0451325,51.1272727 C96.5521137,49.5579624 97.5882158,48.0148714 98.1460629,46.51243 L98.1292007,46.6889994 L98.1477089,46.5144503 C98.4791658,41.3856209 83.7648151,39.1213965 68.1843073,38.1587279 L67.0143667,38.0889438 C65.2576845,37.9878549 63.4945265,37.9027443 61.7450821,37.8313864 L60.581039,37.7858275 C59.4194707,37.7422573 58.2659913,37.7045795 57.126583,37.6721348 Z M11.1093118,24.8430423 C12.2348652,27.8216223 12.8850257,32.3125205 9.79587039,37.0578545 L30.8856149,50.7611269 C34.7161102,44.8674042 31.8254889,39.4718552 30.7403314,37.8189789 L30.6397176,37.6685851 C30.5667202,37.5615614 30.5058387,37.4769042 30.4608501,37.4160508 L11.1093118,24.8430423 Z M15.0192141,22.8718752 L11.7768845,22.8727273 L31.4490182,35.6545455 L90.9497861,35.6545455 L83.7942141,32.2908752 L29.8123535,32.2909121 L29.6972141,32.2828752 L29.7312141,32.2868752 L29.7148939,32.2861677 L29.6962141,32.2828752 L29.6942141,32.2828752 L29.6194412,32.2721732 C29.6059049,32.2694753 29.592608,32.2665794 29.579378,32.2634155 C29.5542975,32.2574597 29.5291316,32.2503893 29.5043308,32.2423667 L29.463949,32.2283768 L29.4102431,32.2066158 C29.3892058,32.1975338 29.3681866,32.1874795 29.3475042,32.1766915 C29.3357278,32.170292 29.3239421,32.1638131 29.3122918,32.1571009 L29.2663519,32.1294545 L15.0192141,22.8718752 Z M31.6441604,16.8177955 C33.0355219,19.3728572 34.9497062,24.5905709 31.6818787,30.2720084 L93.7052514,30.2727273 C95.215013,28.7005215 96.2521564,27.154632 96.8092647,25.6495688 C97.114173,20.597282 82.8095924,18.327987 67.4768382,17.3440087 L66.4968863,17.2829327 C66.3333718,17.2730395 66.1697737,17.2632882 66.0061083,17.2536769 L65.0234389,17.1976753 C64.8595697,17.188617 64.6956659,17.1796951 64.5317438,17.1709079 L63.3599787,17.1103677 C63.1647064,17.1006518 62.9694635,17.0911208 62.7742777,17.0817717 L61.6040682,17.0278363 C59.655597,16.9415016 57.7183584,16.8727516 55.8199986,16.8185389 L31.6441604,16.8177955 Z M9.76943079,3.98849681 C10.8949842,6.96707687 11.5451446,11.457975 8.45598933,16.2033091 L29.5457339,29.9065815 C33.3762292,24.0128587 30.4856079,18.6173098 29.4004503,16.9644334 L29.2998365,16.8140397 C29.2268391,16.7070159 29.1659576,16.6223588 29.1209691,16.5615054 L9.76943079,3.98849681 Z M62.4163491,2.01818182 L10.4370035,2.01818182 L30.1091371,14.8 L89.609905,14.8 L62.4163491,2.01818182 Z M6.47320071,0.171999402 L6.54160947,0.129347293 L6.54160947,0.129347293 C6.5604348,0.118579003 6.57951335,0.108609037 6.59891743,0.0992524823 C6.61351555,0.0922356797 6.62843122,0.0854695816 6.64345884,0.0790924786 C6.66189576,0.0712909504 6.68063256,0.0640113896 6.69961019,0.0572917436 C6.72209866,0.0492723301 6.74480883,0.0421318155 6.7676779,0.0358265082 C6.78298498,0.0316702499 6.79874705,0.027731385 6.81463541,0.0241726362 C6.83850719,0.0187554719 6.86224512,0.014343513 6.88606776,0.0107980447 C6.89920016,0.00892806202 6.91264963,0.00720332613 6.92616699,0.00574989931 C6.95647235,0.00238911485 6.98685784,0.000511589569 7.01723576,1.14755298e-05 L62.6394393,-5.97726626e-07 C62.7867511,-5.97726626e-07 62.9322676,0.0324630509 63.0655214,0.0955272727 L94.5480007,14.8918304 C94.5902738,14.9113822 94.6317007,14.9341195 94.6719756,14.9601091 C94.8394608,15.0677455 98.7700018,17.6510182 99.2543688,22.1798182 C99.5993882,25.4048727 98.1154699,28.7052727 94.8394608,31.9955818 C94.6504182,32.1852908 94.3939053,32.2915667 94.126644,32.2909121 L88.5352141,32.2908752 L95.8833553,35.7444205 C95.9274583,35.7644955 95.9704161,35.7879128 96.0118567,35.8146545 C96.1793418,35.9222909 100.109883,38.5055636 100.59425,43.0343636 C100.939269,46.2594182 99.455351,49.5598182 96.1793418,52.8501273 C95.9902992,53.0398362 95.7337864,53.1461121 95.4665251,53.1454576 L90.9422007,53.1449994 L101.127689,56.5545131 C101.211524,56.5810163 101.293258,56.6190874 101.370711,56.6692 C101.538196,56.7768364 105.468737,59.3601091 105.953104,63.8889091 C106.298124,67.1139636 104.814205,70.4143636 101.538196,73.7046727 C101.349318,73.8942163 101.093079,74.0004786 100.826049,74.0000016 L36.5117587,74.0000016 C36.4257889,74.0000001 36.3416121,73.9889934 36.2608447,73.9680678 C36.246722,73.9644894 36.2322884,73.9604323 36.2179434,73.9560543 C36.1919603,73.9479294 36.1667141,73.9390314 36.1419069,73.929159 C36.1369875,73.927573 36.1317574,73.9254632 36.1265429,73.9233091 L0.619694987,59.1233091 C0.309655141,58.9941449 0.0843094304,58.718066 0.0190497227,58.3874376 C-0.0462099849,58.0568092 0.057234176,57.7152924 0.294773832,57.4771455 C3.10852405,54.6516909 4.40284914,51.9042727 4.13353305,49.3203273 C3.762386,45.7609273 0.492406287,43.5873455 0.459579202,43.5658182 L0.383044413,43.5106364 L0.355338458,43.4884032 C0.333350035,43.4703905 0.312925154,43.4514963 0.293363373,43.4318414 C0.283916696,43.4217381 0.27403938,43.4114087 0.264398121,43.4008876 C0.24736139,43.3828426 0.231823125,43.3645515 0.216971883,43.345754 L0.194481592,43.3156611 C0.177478903,43.2929214 0.161879792,43.2695963 0.147278311,43.2456736 C0.142434589,43.2372819 0.137648853,43.2291975 0.132977102,43.2210488 C0.118623277,43.1964435 0.105334793,43.1707669 0.0931591565,43.144554 L0.0795982307,43.1136516 C0.0710634611,43.0939338 0.0634387971,43.0742776 0.0564278844,43.0543815 C0.0501511465,43.0361916 0.0442177886,43.0177048 0.0388149219,42.9990372 C0.0329170412,42.9790646 0.0277227181,42.9587727 0.0231569958,42.9382999 C0.0198949474,42.9232567 0.0168331481,42.9079018 0.0141258457,42.8924573 C0.00966196156,42.8673734 0.00625171266,42.8423794 0.00377994575,42.8172044 C0.00252390967,42.8040483 0.00144307106,42.7903281 0.000641672652,42.7765614 L-0.000799285551,42.7407372 L0.000128605686,42.668302 L0.000128605686,42.668302 L0.00104441288,42.6506364 L0.00220071445,42.6309994 L0.00470082886,42.6110113 L0.00470082886,42.6110113 L0.000128605686,42.668302 C0.00242906441,42.6209836 0.00800991368,42.5742995 0.0166938202,42.528526 C0.0173759236,42.5263453 0.0178944047,42.5236765 0.0184239144,42.5210078 L0.0249258825,42.4893784 L0.0332007144,42.4539994 L0.0260444129,42.4886364 L0.0377972685,42.4405735 L0.0410444129,42.4276364 L0.063263641,42.3630254 C0.0692204363,42.3462425 0.0760691455,42.3293146 0.0833620668,42.3126017 L0.0976677137,42.2818866 L0.112624689,42.2519157 C0.119868544,42.2372621 0.127887706,42.2226698 0.136259065,42.2082888 L0.162618796,42.1661683 C0.175530093,42.1456244 0.189467959,42.1257798 0.204109136,42.1064531 C0.212243284,42.0964578 0.220551045,42.0859463 0.229056889,42.0756133 C0.243551356,42.0572157 0.258846422,42.0398563 0.274743278,42.0230225 L0.316732598,41.9819369 C0.329773678,41.9688058 0.343987176,41.9561415 0.358578514,41.9438688 L0.394911517,41.915541 L0.394911517,41.915541 C0.413641747,41.9003601 0.433928051,41.8859638 0.454804702,41.8722929 C0.464613424,41.8666432 0.474138074,41.8606296 0.483765225,41.8547753 C0.503191379,41.8422164 0.523584476,41.830766 0.544455284,41.8199929 L0.646044413,41.7756364 L0.622200714,41.7839994 L0.619539092,41.7850717 L0.611200714,41.7879994 L0.622200714,41.7839994 L0.650044413,41.7736364 L0.657044413,41.7706364 L0.653044413,41.7726364 L0.660044413,41.7696364 L0.696491816,41.7567066 C0.724448539,41.7483203 0.753296249,41.7403977 0.782591721,41.7337656 C0.80071971,41.7289952 0.819052317,41.7253763 0.837445332,41.7222762 L0.901394019,41.7143157 C0.922681606,41.7114248 0.943746644,41.7099367 0.96482438,41.709115 L13.2522007,41.7079994 L7.82825506,38.184 C7.5942439,38.0320154 7.43359661,37.7892717 7.38469299,37.5137621 C7.33578937,37.2382524 7.4030218,36.9547223 7.57032795,36.7309091 C12.9256221,29.5610337 7.91748075,22.9134673 7.61056574,22.5205523 L7.58597039,22.4905642 C7.54267806,22.4357091 7.5054109,22.3767314 7.47456861,22.3147137 L7.45767382,22.2781643 C7.44717573,22.2556222 7.43779028,22.2324534 7.42927113,22.2089665 C7.42576306,22.1982889 7.42218438,22.1878751 7.4187823,22.1774211 L7.41276544,22.1595365 C7.36757304,22.0116614 7.35603279,21.8529711 7.38259745,21.6955242 L7.40079111,21.6125289 C7.40343308,21.6021669 7.40623974,21.5918423 7.40921067,21.5815592 L7.40973519,21.5778607 C7.46806061,21.3795198 7.58328438,21.2099543 7.7343449,21.0849585 L7.76651329,21.0600909 L7.80813792,21.0297211 L7.82051329,21.0210909 L7.82151329,21.0200909 L7.82351329,21.0190909 L7.88149053,20.9838927 L7.93879849,20.9537979 L7.98333989,20.9336379 L8.03949125,20.9118372 C8.06197972,20.9038178 8.08468989,20.8966773 8.10755895,20.890372 C8.12286603,20.8862157 8.13862811,20.8822768 8.15451647,20.8787181 C8.17838825,20.8733009 8.20212617,20.868889 8.22594881,20.8653435 C8.23908121,20.8634735 8.25253069,20.8617488 8.26604805,20.8602954 C8.29635341,20.8569346 8.3267389,20.855057 8.35711682,20.8545569 L11.9132141,20.8538752 L6.488374,17.3294545 C6.25436284,17.17747 6.09371556,16.9347263 6.04481194,16.6592166 C5.99590832,16.383707 6.06314075,16.1001769 6.2304469,15.8763636 C11.7239592,8.52143636 6.31217965,1.71612727 6.25657458,1.64818182 L6.24608934,1.63601875 C6.20279701,1.58116361 6.16552984,1.52218593 6.13468756,1.46016821 C6.1289425,1.44779212 6.12324044,1.43574463 6.11779277,1.42361886 C6.10729468,1.40107676 6.09790922,1.37790792 6.08939007,1.35442105 C6.085882,1.34374341 6.08230333,1.33332968 6.07890124,1.32287568 L6.07288438,1.30499102 C6.02769199,1.15711598 6.01615174,0.998425658 6.0427164,0.840978789 L6.06091006,0.75798343 C6.06355203,0.747621485 6.06635869,0.737296832 6.06932961,0.72701377 L6.06985413,0.723315203 C6.12817955,0.524974378 6.24340333,0.355408819 6.39446384,0.23041303 L6.39793203,0.228054545 L6.46825686,0.175175687 L6.46825686,0.175175687 L6.47220071,0.171999402 L6.46920071,0.174999402 L6.47320071,0.171999402 Z" id="shadow" fill="#361610"></path>
                </g>
                <g id="bird" transform="translate(140.000000, 93.000000)">
                    <path d="M14.0861187,28.6192577 C8.20129805,24.5988788 6.72989425,17.4154365 6.72989425,11.6162259 C6.72989425,5.81701526 1,3.31240142 1,3.31240142 L6.59641918,3.84010062 C6.59641918,3.84010062 9.80617691,-1.43219372 16.7611817,2.39010223 C23.7161864,6.21239819 29.9990488,13.9916552 41.7726627,21.3700487 C51.2657819,27.3378949 61.4041057,32.2448168 72,36 C65.8474347,34.286152 54.7459632,29.9369398 42.7109607,31.7823211 C30.6759581,33.6277024 25.8557601,36.6592325 14.0861187,28.6192577 Z" id="primary" fill="#D56D58"></path>
                    <path d="M18.5090962,3 L30.3348858,11.8479232 L30.3348858,11.8479232 L30.3135242,11.8471948 C30.2994207,11.846784 30.2784718,11.8462804 30.2510903,11.8459086 L30.0858464,11.8458847 C28.8277019,11.8604524 23.1730901,12.2297908 21.7058314,17.6295318 C20.0518307,23.7165126 33.7888749,27.1070885 33.7888749,27.1070885 L33.7888749,27.1070885 L49,31.4318828 L28.0969344,34 C19.0883121,32.8068447 16.2892947,26.8048644 15.190047,20.6352442 C14.1278882,14.672616 17.7807362,13.5959429 19.6406979,9.75360516 C20.706974,7.48655799 20.2565059,4.79808243 18.5090962,3 L18.5090962,3 Z M34.9939025,17.0009487 C35.008796,17.0011302 35.0165194,17.0012648 35.0165194,17.0012648 L35.0165194,17.0012648 L45,24 C45,24 33.8801883,23.1327485 29.9841959,19.9891564 C27.6351417,18.0937554 29.9482116,17.3977727 32.1554031,17.1439013 L32.4770975,17.1098176 C33.3832871,17.021691 34.2312876,17.0032218 34.681214,17.0004256 Z" id="highlight" fill="#FFFFFF"></path>
                    <path d="M17.4451424,1.56997764 C20.8099373,3.46005682 23.9621107,6.21990694 27.6122453,9.41543903 C32.232015,13.630484 37.1718907,17.4749359 42.3866748,20.9136198 C50.1742346,25.9260285 58.4044682,30.1948116 66.9698966,33.666781 C66.980103,33.6678751 66.9900519,33.6701647 67,33.672455 C68.7324435,34.3807945 70.4797275,35.0504265 72.2398435,35.686982 C72.7716532,35.893077 73.0827745,36.4512316 72.9807128,37.0161088 C72.8786511,37.580986 72.3922722,37.9928239 71.8225046,37.9968133 L71.8225046,38 C71.7134313,38 71.6048793,37.984839 71.5000154,37.9545991 C70.5862962,37.6949423 69.5642901,37.3755483 68.4466439,37.0266842 C62.2150152,35.080054 52.8011775,32.1386033 42.8632948,33.6949517 C40.8366718,34.0135491 39.0503348,34.3592273 37.3224885,34.6945511 C36.7695523,34.8015176 36.2292181,34.9060708 35.6992233,35.0059129 L36.7748239,36.49896 C37.0826574,36.9263806 37.0740991,37.5098208 36.7538663,37.9277031 L31.939,44.201 L36.2572261,45.8399578 C36.7830982,46.0392175 37.0857627,46.5646521 36.9785185,47.0921427 C36.8712742,47.6196333 36.3843325,48.0005828 35.8180675,48 C35.6678669,47.9998214 35.519082,47.9724527 35.3796959,47.9193618 L30.7614473,46.1669879 C30.5806762,46.1018611 30.4230686,45.9970932 30.2988602,45.8647313 L23.5024646,47.9510195 C23.3923385,47.9840366 23.2780682,48.0005327 23.1632622,48 C22.5861316,47.9994088 22.0965146,47.5687301 22.0125007,46.9877497 C21.9284869,46.4067693 22.2754339,45.8508443 22.8279409,45.6811423 L29.3938738,43.6655798 L34.3740164,37.172657 L33.1350909,35.4536532 C31.9474945,35.6379112 30.7967611,35.7744387 29.6529182,35.8327963 L29.9808597,37.6460001 C30.0476201,38.015718 29.9376783,38.3952486 29.6832678,38.673318 L24.274577,44.5838257 C24.121498,44.7509947 23.9243436,44.8723154 23.7054123,44.9340661 L16.5501989,46.9515797 C16.4426535,46.9827283 16.3312969,46.9990216 16.2192703,47 C15.6107297,46.999769 15.0954743,46.554355 15.0117082,45.9561195 C14.927942,45.357884 15.3012994,44.7899006 15.8867155,44.624983 L22.7053086,42.7002751 L27.4740957,37.48702 L27.1913052,35.9306824 C26.8091897,35.8721152 26.4372352,35.8041338 26.0751715,35.7272926 C22.4384935,35.2985747 18.5634067,33.7936976 13.5310093,30.2787909 C7.06067551,25.75869 5.70195282,17.8407477 5.70195282,11.9992641 C5.70195282,6.93515814 0.75632873,4.66674453 0.70653261,4.64444272 C0.174205317,4.40738009 -0.108661822,3.81602112 0.0389099164,3.24871797 C0.186481655,2.68141482 0.720853603,2.30592559 1.30013397,2.36248872 L6.21256065,2.83640237 C7.45825404,1.3533314 11.170041,-1.95769226 17.4451424,1.56997764 Z M20.9010145,6.84332494 L20.9225698,6.96744194 C21.1345636,8.34700333 20.9349493,9.78839928 20.2919619,11.1078027 C19.6462571,12.3200278 18.8452805,13.4472346 17.9082903,14.4623215 C16.2041706,16.4574105 14.8579644,18.0331847 15.6455353,21.6748516 C16.4510512,25.4054558 18.9075983,31.6478548 26.3645279,33.3691775 C29.6530354,33.7469316 32.8106654,33.1353454 36.8743235,32.3472846 C38.5413078,32.0247047 40.4311891,31.6583177 42.4989137,31.3341448 L43.1320072,31.2473149 C30.0182182,28.4929929 19.9961215,25.3951504 20,18.9536403 C20,14.487903 23.3462077,12.3262572 26.3249129,11.4639224 C26.2345064,11.3845406 26.1451539,11.3032816 26.0559189,11.2218864 C24.2359613,9.62962836 22.5431019,8.14786704 20.9010145,6.84332494 Z M28.5631478,13.4463564 L28.538818,13.4487086 C26.8948127,13.6692951 22.363652,14.6673425 22.3610192,18.9584196 C22.3610192,23.8837343 33.1668245,26.7732968 45.4044226,29.2790678 L46.2808452,29.457421 C46.4272793,29.4870452 46.5738847,29.5166206 46.7206456,29.5461499 L47.6029499,29.7227959 L47.6029499,29.7227959 L48.4882264,29.8984709 C49.0792327,30.0152936 49.6717144,30.1315582 50.2646592,30.2474431 L51.1542972,30.421008 C51.5991634,30.5076703 52.0440054,30.5941692 52.4883962,30.6805799 C53.6679235,30.9098106 54.8572926,31.1409756 56.0514653,31.3756474 L56.2884866,31.4934435 C52.225702,29.504631 48.2550995,27.3314844 44.3888245,24.980857 C41.9895113,24.8722435 32.5679251,24.2587902 28.7215457,21.1534203 C27.2843245,19.9948596 26.7446722,18.8418347 27.1113183,17.7212337 C27.5446829,16.3981092 29.2042473,15.7131094 30.8355781,15.3586701 C30.0703307,14.730926 29.3128815,14.0932995 28.5631478,13.4463564 Z M7.77125822,4.70258674 C7.53476432,5.09646369 7.09589878,5.3197489 6.64096536,5.27765508 L5.31148802,5.14941962 C7.08454905,6.98158476 8.07578565,9.44014124 8.0731966,11.9992641 C8.0731966,17.2728478 9.25407599,24.3839422 14.8818279,28.3146378 C15.3345553,28.6307226 15.7759297,28.9293504 16.2069282,29.2112885 C14.5543662,26.7769589 13.7098104,24.1584663 13.278792,22.1633967 C12.2501937,17.4022457 14.269503,15.0381911 16.0502033,12.9494839 C16.8582364,12.0810293 17.5515238,11.1171403 18.1138487,10.0803633 C18.9783637,8.27187652 18.6166333,6.13093323 17.2029427,4.68906 L17.5025656,4.38812643 C17.0985351,4.13092867 16.6943385,3.88785956 16.2887659,3.6599767 C10.4396979,0.369661874 7.87796419,4.52496868 7.77125822,4.70258674 Z M33.3903077,17.400207 L33.3147167,17.4048542 C31.5491763,17.5528645 29.7793569,18.0125873 29.4032536,18.4337683 C29.6089762,18.7821532 29.8878096,19.0821306 30.2206682,19.3131673 C32.1974851,20.9092929 36.4650971,21.7925419 40.0784599,22.2412255 L41.1125265,22.9303415 C38.4669956,21.1882682 35.8910172,19.3434083 33.3903077,17.400207 Z M13.5,5 C14.3284271,5 15,5.67157288 15,6.5 C15,7.32842712 14.3284271,8 13.5,8 C12.6715729,8 12,7.32842712 12,6.5 C12,5.67157288 12.6715729,5 13.5,5 Z" id="shadow" fill="#361610"></path>
                </g>
            </g>
        </g>
    </g>
</svg>