<?xml version="1.0" encoding="utf-8"?>
<!-- Generator: Adobe Illustrator 26.4.0, SVG Export Plug-In . SVG Version: 6.00 Build 0)  -->
<svg version="1.1" id="Layer_1" xmlns="http://www.w3.org/2000/svg" xmlns:xlink="http://www.w3.org/1999/xlink" x="0px" y="0px"
	 width="140px" height="70px" viewBox="0 0 140 70" style="enable-background:new 0 0 140 70;" xml:space="preserve">
<style type="text/css">
	.st0{fill:#FFFFFF;}
	.st1{clip-path:url(#SVGID_00000030451131401814149670000004601232465416953749_);}
	.st2{fill:none;stroke:#020202;stroke-width:0.35;stroke-miterlimit:20;}
	.st3{fill:#010101;}
	.st4{clip-path:url(#SVGID_00000041295157666086244480000001074492445591852451_);}
	.st5{fill:none;stroke:#010101;stroke-width:0.35;stroke-miterlimit:20;}
	.st6{clip-path:url(#SVGID_00000065043649850858064070000010637997060279015563_);}
	.st7{clip-path:url(#SVGID_00000059281717033433997210000011378822170723833734_);}
	.st8{clip-path:url(#SVGID_00000183966698540666534300000008739829471628679846_);}
	.st9{clip-path:url(#SVGID_00000124152126783097712810000003860489735611690652_);}
</style>
<g>
	<g>
		<g>
			<g>
				<path class="st0" d="M0.3,69.8h72.1V0.3H0.3V69.8z"/>
			</g>
			<g>
				<g>
					<g>
						<defs>
							<rect id="SVGID_1_" width="140" height="70"/>
						</defs>
						<clipPath id="SVGID_00000145762659193023719300000015844138748102346398_">
							<use xlink:href="#SVGID_1_"  style="overflow:visible;"/>
						</clipPath>
						<g style="clip-path:url(#SVGID_00000145762659193023719300000015844138748102346398_);">
							<g>
								<path class="st2" d="M72.5,69.8L72.5,69.8H0.3l0,0V0.3l0,0h72.1l0,0"/>
							</g>
						</g>
					</g>
				</g>
			</g>
			<g>
				<g>
					<path class="st3" d="M69.9,69.8h69.8V0.3H69.9V69.8z"/>
				</g>
			</g>
			<g>
				<g>
					<g>
						<defs>
							<rect id="SVGID_00000086671493338130675450000014754415845827088281_" width="140" height="70"/>
						</defs>
						<clipPath id="SVGID_00000031907213264212732320000013982472134594337946_">
							<use xlink:href="#SVGID_00000086671493338130675450000014754415845827088281_"  style="overflow:visible;"/>
						</clipPath>
						<g style="clip-path:url(#SVGID_00000031907213264212732320000013982472134594337946_);">
							<path class="st5" d="M69.9,0.3L69.9,0.3h69.8v69.5H69.9l0,0V0.3z"/>
						</g>
					</g>
				</g>
				<g>
					<g>
						<defs>
							<rect id="SVGID_00000134225625485503975960000008973788725287846587_" width="140" height="70"/>
						</defs>
						<clipPath id="SVGID_00000008854449117154852600000009467454388856778421_">
							<use xlink:href="#SVGID_00000134225625485503975960000008973788725287846587_"  style="overflow:visible;"/>
						</clipPath>
						<g style="clip-path:url(#SVGID_00000008854449117154852600000009467454388856778421_);">
							<g>
								<path class="st0" d="M136.6,38.7h-4.5v8.7c0,1.9,0.5,2.6,1.7,2.6c1,0,1.7-0.3,2.6-0.6v2.6c-1.4,0.6-2.2,1-3.6,1
									c-2.7,0-3.7-1.6-3.7-5v-9.1h-7.3v8.7c0,1.9,0.5,2.6,1.7,2.6c1,0,1.6-0.3,2.5-0.6v2.7c-1.4,0.6-2.1,0.9-3.6,0.9
									c-2.7,0-3.7-1.6-3.7-5v-9.1h-2.8v-2.5h2.8l0.1-3.8l3.2-0.5l-0.1,4.5h7.2l0.1-3.8l3.2-0.5l-0.1,4.5h4.5L136.6,38.7z"/>
							</g>
						</g>
					</g>
				</g>
			</g>
			<g>
				<g>
					<path class="st0" d="M96.1,52.6h-3.2V29.3l3.2-0.5V52.6z"/>
				</g>
			</g>
			<g>
				<g>
					<path class="st0" d="M90.1,52.6h-4.3l-8-10.7l-0.1-0.3l-0.2,0.1l0.1,0.4v10.6h-3.3v-23h3.3v10l-0.1,0.3h0.1l0.1-0.4l7.9-10h4
						v0.3h-0.2l-8.7,10.6l9,11.6h0.2v0.4H90.1z"/>
				</g>
			</g>
			<g>
				<g>
					<g>
						<defs>
							<rect id="SVGID_00000091006086427857926510000012075244086334295437_" width="140" height="70"/>
						</defs>
						<clipPath id="SVGID_00000072970299379639537290000017509494828412266648_">
							<use xlink:href="#SVGID_00000091006086427857926510000012075244086334295437_"  style="overflow:visible;"/>
						</clipPath>
						<g style="clip-path:url(#SVGID_00000072970299379639537290000017509494828412266648_);">
							<g>
								<path class="st0" d="M103.2,42.6c0.1-0.9,0.2-1.6,0.4-2.1c0.4-0.9,1-1.5,1.6-1.8c0.5-0.3,1.2-0.4,1.7-0.4
									c1.5,0,2.4,0.7,2.8,1.4c0.5,0.9,0.6,1.4,0.7,3.1L103.2,42.6z M113.9,44.4c0-1.9-0.1-4.6-1.7-6.5c-1.2-1.4-2.7-2.1-4.9-2.1
									c-4.7,0-7.4,3.3-7.4,8.5s2.8,8.7,7.6,8.7c1.4,0,2.8-0.3,4.1-0.9c0.6-0.3,1.2-0.6,1.8-1l-1-2.6c-1.2,0.7-1.9,1.1-3.2,1.3
									c-0.5,0.1-1,0.1-1.5,0.1c-2,0-3.3-0.9-4-2.5c-0.3-0.7-0.3-1.2-0.4-2.5H114v-0.6H113.9z"/>
							</g>
						</g>
					</g>
				</g>
				<g>
					<g>
						<defs>
							<rect id="SVGID_00000014609856884365594180000001818622657386434956_" width="140" height="70"/>
						</defs>
						<clipPath id="SVGID_00000080885578644540923540000005142803612180733827_">
							<use xlink:href="#SVGID_00000014609856884365594180000001818622657386434956_"  style="overflow:visible;"/>
						</clipPath>
						<g style="clip-path:url(#SVGID_00000080885578644540923540000005142803612180733827_);">
							<g>
								<g>
									<path class="st3" d="M39.6,39.1c0-1.4,0.1-3,0.1-4.8c0-7.4-0.2-17.5-1.1-20.7c-0.3-1.1-1.1-1.3-1.5-1.6
										c-0.3,0.9-0.5,4.3-0.5,9.3c0,11.5,0.9,31.4,1.8,41.5l-2.5,3c-1.4-10.4-3.8-34.6-3.8-44.4c0-6.4,7.3-15.9,7.3-15.9
										s1.6,0.4,3,2.4c0.6,1,1.8,4.4,1.8,13c0,7.5-1,13.6-1.2,14.9L43,36h0.1l0.2-0.3c4.1-5.2,10.4-6,13.7-6c0,0,0.9,2,0.9,6.3
										c0,9-6.5,12.7-10.9,13.4l-0.1-0.1l-0.1,0.1l0.1,0.1c1.7,4.6,7.4,6.8,7.4,6.8l-5.1,5.2c-8.1-3.8-9.4-12.8-9.4-12.8
										s0.4,0.1,1.3,0.1c2.2,0,10.4-1.5,10.4-11.8c0-1.7-0.4-3.1-0.9-3.7c-5.9,0.2-8.7,5.9-9,9.4C40,42.4,39.6,40.3,39.6,39.1"/>
								</g>
							</g>
						</g>
					</g>
				</g>
				<g>
					<g>
						<defs>
							<rect id="SVGID_00000164472844764956413720000009649317065567638973_" width="140" height="70"/>
						</defs>
						<clipPath id="SVGID_00000039816248797661087820000007865291720366516652_">
							<use xlink:href="#SVGID_00000164472844764956413720000009649317065567638973_"  style="overflow:visible;"/>
						</clipPath>
						<g style="clip-path:url(#SVGID_00000039816248797661087820000007865291720366516652_);">
							<g>
								<g>
									<path class="st3" d="M16.5,56.3c0,0,12.1-1.7,12.1-13.3c0-9.8-8.4-9.7-8.4-9.7s-0.9,0.6-0.9,4.3c0,8.4,5.3,10.3,6.6,10.5
										c-0.5,0.5-1.3,0.9-2.6,0.9c-4.1,0-10.7-4.6-10.7-13.1c0-4.6,0.9-6.3,0.9-6.3c3,0.1,18.6,1,18.6,17.8
										c0,11.1-10.8,13.9-10.8,13.9L16.5,56.3z"/>
								</g>
							</g>
						</g>
					</g>
				</g>
			</g>
		</g>
	</g>
	<path class="st2" d="M140,70V0"/>
</g>
</svg>
